<svg width="64" height="64" viewBox="0 0 64 64" fill="none" xmlns="http://www.w3.org/2000/svg">
  <rect width="64" height="64" rx="18" fill="#F7FBFF"/>
  <rect x="0" y="32" width="32" height="32" rx="0 0 0 18" fill="url(#paint0_linear_401_1)"/>
  <rect x="11" y="0" width="21" height="32" fill="url(#paint1_linear_401_1)"/>
  <path d="M32 16C23.1634 16 16 23.1634 16 32C16 40.8366 23.1634 48 32 48" stroke="#D6ECFB" stroke-width="6.5"/>
  <path d="M32 16C23.1634 16 16 23.1634 16 32C16 40.8366 23.1634 48 32 48" stroke="#8E93A1" stroke-opacity="0.6" stroke-width="1.5"/>
  <circle cx="31" cy="32" r="11" fill="url(#paint2_linear_401_1)"/>
  <path d="M13.5 25H2.5" stroke="#9FA2AE" stroke-width="2.5" stroke-linecap="round"/>
  <path d="M13.5 29H2.5" stroke="#B0B3BD" stroke-width="2.5" stroke-linecap="round"/>
  <path d="M13.5 33H2.5" stroke="#C0C2CB" stroke-width="2.5" stroke-linecap="round"/>
  <path d="M13.5 37H2.5" stroke="#A9ADB8" stroke-width="2.5" stroke-linecap="round"/>
  <rect x="34.5" y="4.5" width="25" height="25" fill="url(#paint3_linear_401_1)"/>
  <path d="M36 36H54" stroke="#A8D5F5" stroke-width="3" stroke-linecap="round"/>
  <path d="M36 40H54" stroke="#B9BFCB" stroke-width="2.5" stroke-linecap="round"/>
  <path d="M36 44H54" stroke="#A8D5F5" stroke-width="3" stroke-linecap="round"/>
  <path d="M14 53L28 39" stroke="#7F8392" stroke-width="3" stroke-linecap="square"/>
  <circle cx="54" cy="54" r="10" fill="#8E90A0"/>
  <path d="M32 54H50" stroke="#7E8392" stroke-width="2.5" stroke-linecap="square"/>
  <path d="M50 54L59 45" stroke="#D2D5DB" stroke-width="2" stroke-linecap="square"/>
  <defs>
    <linearGradient id="paint0_linear_401_1" x1="0" y1="32" x2="32" y2="64" gradientUnits="userSpaceOnUse">
      <stop stop-color="#27C0E6"/>
      <stop offset="1" stop-color="#1DC4EC"/>
    </linearGradient>
    <linearGradient id="paint1_linear_401_1" x1="11" y1="0" x2="32" y2="32" gradientUnits="userSpaceOnUse">
      <stop stop-color="#23BFE4"/>
      <stop offset="1" stop-color="#27C8EE"/>
    </linearGradient>
    <linearGradient id="paint2_linear_401_1" x1="20" y1="21" x2="42" y2="43" gradientUnits="userSpaceOnUse">
      <stop stop-color="#D9ECFB"/>
      <stop offset="1" stop-color="#C1DDF4"/>
    </linearGradient>
    <linearGradient id="paint3_linear_401_1" x1="34.5" y1="4.5" x2="59.5" y2="29.5" gradientUnits="userSpaceOnUse">
      <stop stop-color="#FBFEFF"/>
      <stop offset="1" stop-color="#DFF1FD"/>
    </linearGradient>
  </defs>
</svg>
