<svg width="1254" height="1254" viewBox="0 0 1254 1254" fill="none" xmlns="http://www.w3.org/2000/svg">
<circle cx="663.5" cy="294.5" r="2.5" fill="#D9D9D9"/>
<circle cx="682.5" cy="294.5" r="2.5" fill="#D9D9D9"/>
<circle cx="701.5" cy="294.5" r="2.5" fill="#D9D9D9"/>
<circle cx="720.5" cy="294.5" r="2.5" fill="#D9D9D9"/>
<circle cx="739.5" cy="294.5" r="2.5" fill="#D9D9D9"/>
<circle cx="758.5" cy="294.5" r="2.5" fill="#D9D9D9"/>
<circle cx="777.5" cy="294.5" r="2.5" fill="#D9D9D9"/>
<circle cx="796.5" cy="294.5" r="2.5" fill="#D9D9D9"/>
<circle cx="815.5" cy="294.5" r="2.5" fill="#D9D9D9"/>
<circle cx="834.5" cy="294.5" r="2.5" fill="#D9D9D9"/>
<circle cx="853.5" cy="294.5" r="2.5" fill="#D9D9D9"/>
<circle cx="872.5" cy="294.5" r="2.5" fill="#D9D9D9"/>
<circle cx="891.5" cy="294.5" r="2.5" fill="#D9D9D9"/>
<circle cx="910.5" cy="294.5" r="2.5" fill="#D9D9D9"/>
<circle cx="929.5" cy="294.5" r="2.5" fill="#D9D9D9"/>
<circle cx="663.5" cy="313.5" r="2.5" fill="#D9D9D9"/>
<circle cx="682.5" cy="313.5" r="2.5" fill="#D9D9D9"/>
<circle cx="701.5" cy="313.5" r="2.5" fill="#D9D9D9"/>
<circle cx="720.5" cy="313.5" r="2.5" fill="#D9D9D9"/>
<circle cx="739.5" cy="313.5" r="2.5" fill="#D9D9D9"/>
<circle cx="758.5" cy="313.5" r="2.5" fill="#D9D9D9"/>
<circle cx="777.5" cy="313.5" r="2.5" fill="#D9D9D9"/>
<circle cx="796.5" cy="313.5" r="2.5" fill="#D9D9D9"/>
<circle cx="815.5" cy="313.5" r="2.5" fill="#D9D9D9"/>
<circle cx="834.5" cy="313.5" r="2.5" fill="#D9D9D9"/>
<circle cx="853.5" cy="313.5" r="2.5" fill="#D9D9D9"/>
<circle cx="872.5" cy="313.5" r="2.5" fill="#D9D9D9"/>
<circle cx="891.5" cy="313.5" r="2.5" fill="#D9D9D9"/>
<circle cx="910.5" cy="313.5" r="2.5" fill="#D9D9D9"/>
<circle cx="929.5" cy="313.5" r="2.5" fill="#D9D9D9"/>
<circle cx="663.5" cy="332.5" r="2.5" fill="#D9D9D9"/>
<circle cx="682.5" cy="332.5" r="2.5" fill="#D9D9D9"/>
<circle cx="701.5" cy="332.5" r="2.5" fill="#D9D9D9"/>
<circle cx="720.5" cy="332.5" r="2.5" fill="#D9D9D9"/>
<circle cx="739.5" cy="332.5" r="2.5" fill="#D9D9D9"/>
<circle cx="758.5" cy="332.5" r="2.5" fill="#D9D9D9"/>
<circle cx="777.5" cy="332.5" r="2.5" fill="#D9D9D9"/>
<circle cx="796.5" cy="332.5" r="2.5" fill="#D9D9D9"/>
<circle cx="815.5" cy="332.5" r="2.5" fill="#D9D9D9"/>
<circle cx="834.5" cy="332.5" r="2.5" fill="#D9D9D9"/>
<circle cx="853.5" cy="332.5" r="2.5" fill="#D9D9D9"/>
<circle cx="872.5" cy="332.5" r="2.5" fill="#D9D9D9"/>
<circle cx="891.5" cy="332.5" r="2.5" fill="#D9D9D9"/>
<circle cx="910.5" cy="332.5" r="2.5" fill="#D9D9D9"/>
<circle cx="929.5" cy="332.5" r="2.5" fill="#D9D9D9"/>
<circle cx="663.5" cy="351.5" r="2.5" fill="#D9D9D9"/>
<circle cx="682.5" cy="351.5" r="2.5" fill="#D9D9D9"/>
<circle cx="701.5" cy="351.5" r="2.5" fill="#D9D9D9"/>
<circle cx="720.5" cy="351.5" r="2.5" fill="#D9D9D9"/>
<circle cx="739.5" cy="351.5" r="2.5" fill="#D9D9D9"/>
<circle cx="758.5" cy="351.5" r="2.5" fill="#D9D9D9"/>
<circle cx="777.5" cy="351.5" r="2.5" fill="#D9D9D9"/>
<circle cx="796.5" cy="351.5" r="2.5" fill="#D9D9D9"/>
<circle cx="815.5" cy="351.5" r="2.5" fill="#D9D9D9"/>
<circle cx="834.5" cy="351.5" r="2.5" fill="#D9D9D9"/>
<circle cx="853.5" cy="351.5" r="2.5" fill="#D9D9D9"/>
<circle cx="872.5" cy="351.5" r="2.5" fill="#D9D9D9"/>
<circle cx="891.5" cy="351.5" r="2.5" fill="#D9D9D9"/>
<circle cx="910.5" cy="351.5" r="2.5" fill="#D9D9D9"/>
<circle cx="929.5" cy="351.5" r="2.5" fill="#D9D9D9"/>
<circle cx="663.5" cy="370.5" r="2.5" fill="#D9D9D9"/>
<circle cx="682.5" cy="370.5" r="2.5" fill="#D9D9D9"/>
<circle cx="701.5" cy="370.5" r="2.5" fill="#D9D9D9"/>
<circle cx="720.5" cy="370.5" r="2.5" fill="#D9D9D9"/>
<circle cx="739.5" cy="370.5" r="2.5" fill="#D9D9D9"/>
<circle cx="758.5" cy="370.5" r="2.5" fill="#D9D9D9"/>
<circle cx="777.5" cy="370.5" r="2.5" fill="#D9D9D9"/>
<circle cx="796.5" cy="370.5" r="2.5" fill="#D9D9D9"/>
<circle cx="815.5" cy="370.5" r="2.5" fill="#D9D9D9"/>
<circle cx="834.5" cy="370.5" r="2.5" fill="#D9D9D9"/>
<circle cx="853.5" cy="370.5" r="2.5" fill="#D9D9D9"/>
<circle cx="872.5" cy="370.5" r="2.5" fill="#D9D9D9"/>
<circle cx="891.5" cy="370.5" r="2.5" fill="#D9D9D9"/>
<circle cx="910.5" cy="370.5" r="2.5" fill="#D9D9D9"/>
<circle cx="929.5" cy="370.5" r="2.5" fill="#D9D9D9"/>
<circle cx="663.5" cy="389.5" r="2.5" fill="#D9D9D9"/>
<circle cx="682.5" cy="389.5" r="2.5" fill="#D9D9D9"/>
<circle cx="701.5" cy="389.5" r="2.5" fill="#D9D9D9"/>
<circle cx="720.5" cy="389.5" r="2.5" fill="#D9D9D9"/>
<circle cx="739.5" cy="389.5" r="2.5" fill="#D9D9D9"/>
<circle cx="758.5" cy="389.5" r="2.5" fill="#D9D9D9"/>
<circle cx="777.5" cy="389.5" r="2.5" fill="#D9D9D9"/>
<circle cx="796.5" cy="389.5" r="2.5" fill="#D9D9D9"/>
<circle cx="815.5" cy="389.5" r="2.5" fill="#D9D9D9"/>
<circle cx="834.5" cy="389.5" r="2.5" fill="#D9D9D9"/>
<circle cx="853.5" cy="389.5" r="2.5" fill="#D9D9D9"/>
<circle cx="872.5" cy="389.5" r="2.5" fill="#D9D9D9"/>
<circle cx="891.5" cy="389.5" r="2.5" fill="#D9D9D9"/>
<circle cx="910.5" cy="389.5" r="2.5" fill="#D9D9D9"/>
<circle cx="929.5" cy="389.5" r="2.5" fill="#D9D9D9"/>
<circle cx="663.5" cy="408.5" r="2.5" fill="#D9D9D9"/>
<circle cx="682.5" cy="408.5" r="2.5" fill="#D9D9D9"/>
<circle cx="701.5" cy="408.5" r="2.5" fill="#D9D9D9"/>
<circle cx="720.5" cy="408.5" r="2.5" fill="#D9D9D9"/>
<circle cx="739.5" cy="408.5" r="2.5" fill="#D9D9D9"/>
<circle cx="758.5" cy="408.5" r="2.5" fill="#D9D9D9"/>
<circle cx="777.5" cy="408.5" r="2.5" fill="#D9D9D9"/>
<circle cx="796.5" cy="408.5" r="2.5" fill="#D9D9D9"/>
<circle cx="815.5" cy="408.5" r="2.5" fill="#D9D9D9"/>
<circle cx="834.5" cy="408.5" r="2.5" fill="#D9D9D9"/>
<circle cx="853.5" cy="408.5" r="2.5" fill="#D9D9D9"/>
<circle cx="872.5" cy="408.5" r="2.5" fill="#D9D9D9"/>
<circle cx="891.5" cy="408.5" r="2.5" fill="#D9D9D9"/>
<circle cx="910.5" cy="408.5" r="2.5" fill="#D9D9D9"/>
<circle cx="929.5" cy="408.5" r="2.5" fill="#D9D9D9"/>
<circle cx="663.5" cy="427.5" r="2.5" fill="#D9D9D9"/>
<circle cx="682.5" cy="427.5" r="2.5" fill="#D9D9D9"/>
<circle cx="701.5" cy="427.5" r="2.5" fill="#D9D9D9"/>
<circle cx="720.5" cy="427.5" r="2.5" fill="#D9D9D9"/>
<circle cx="739.5" cy="427.5" r="2.5" fill="#D9D9D9"/>
<circle cx="758.5" cy="427.5" r="2.5" fill="#D9D9D9"/>
<circle cx="777.5" cy="427.5" r="2.5" fill="#D9D9D9"/>
<circle cx="796.5" cy="427.5" r="2.5" fill="#D9D9D9"/>
<circle cx="815.5" cy="427.5" r="2.5" fill="#D9D9D9"/>
<circle cx="834.5" cy="427.5" r="2.5" fill="#D9D9D9"/>
<circle cx="853.5" cy="427.5" r="2.5" fill="#D9D9D9"/>
<circle cx="872.5" cy="427.5" r="2.5" fill="#D9D9D9"/>
<circle cx="891.5" cy="427.5" r="2.5" fill="#D9D9D9"/>
<circle cx="910.5" cy="427.5" r="2.5" fill="#D9D9D9"/>
<circle cx="929.5" cy="427.5" r="2.5" fill="#D9D9D9"/>
<rect x="414" y="403" width="338" height="480" fill="#00C2FF"/>
<rect x="752" y="883" width="369" height="371" fill="black"/>
<path d="M751.791 397C886.111 397 995 505.889 995 640.209C995 774.53 886.112 883.418 751.791 883.418V640.209H508.581C508.581 505.888 617.47 397 751.791 397Z" fill="#E4E4E4"/>
<path d="M752.065 397.001C817.361 397.073 876.629 422.876 920.277 464.816L752.065 639.119V397.001Z" fill="white"/>
<path d="M921.083 465.594C966.622 509.753 994.941 571.569 994.999 640H754.014L921.083 465.594Z" fill="#EEEEEE"/>
<ellipse cx="751.5" cy="640" rx="151.5" ry="152" fill="white"/>
<path d="M208.52 304.84V274.32H355.24V304.84H208.52ZM305.96 143L406.76 353H367.28L275.72 157H290L198.44 353H158.96L259.76 143H305.96Z" fill="black"/>
<path d="M467.76 299.6C466.147 299.6 464.794 299.307 463.7 298.72C462.62 298.12 461.8 297.333 461.24 296.36C460.694 295.387 460.42 294.32 460.42 293.16C460.42 292.027 460.634 291.047 461.06 290.22C461.5 289.38 462.114 288.687 462.9 288.14C463.687 287.58 464.627 287.14 465.72 286.82C466.747 286.54 467.894 286.3 469.16 286.1C470.44 285.887 471.734 285.693 473.04 285.52C474.347 285.347 475.567 285.18 476.7 285.02L475.42 285.76C475.46 283.84 475.074 282.42 474.26 281.5C473.46 280.58 472.074 280.12 470.1 280.12C468.794 280.12 467.647 280.42 466.66 281.02C465.687 281.607 465 282.567 464.6 283.9L461.22 282.88C461.74 280.987 462.747 279.5 464.24 278.42C465.734 277.34 467.7 276.8 470.14 276.8C472.1 276.8 473.78 277.153 475.18 277.86C476.594 278.553 477.607 279.607 478.22 281.02C478.527 281.687 478.72 282.413 478.8 283.2C478.88 283.973 478.92 284.787 478.92 285.64V299H475.76V293.82L476.5 294.3C475.687 296.047 474.547 297.367 473.08 298.26C471.627 299.153 469.854 299.6 467.76 299.6ZM468.3 296.62C469.58 296.62 470.687 296.393 471.62 295.94C472.567 295.473 473.327 294.867 473.9 294.12C474.474 293.36 474.847 292.533 475.02 291.64C475.22 290.973 475.327 290.233 475.34 289.42C475.367 288.593 475.38 287.96 475.38 287.52L476.62 288.06C475.46 288.22 474.32 288.373 473.2 288.52C472.08 288.667 471.02 288.827 470.02 289C469.02 289.16 468.12 289.353 467.32 289.58C466.734 289.767 466.18 290.007 465.66 290.3C465.154 290.593 464.74 290.973 464.42 291.44C464.114 291.893 463.96 292.46 463.96 293.14C463.96 293.727 464.107 294.287 464.4 294.82C464.707 295.353 465.174 295.787 465.8 296.12C466.44 296.453 467.274 296.62 468.3 296.62Z" fill="black"/>
<path d="M433.8 299L443.44 270.2H448.4L458.04 299H454.34L445.32 272.28H446.44L437.5 299H433.8ZM438.44 292.26V288.92H453.4V292.26H438.44Z" fill="black"/>
<path d="M487.322 324.21C486.58 324.21 485.932 324.047 485.376 323.72C484.826 323.389 484.396 322.929 484.088 322.341C483.78 321.748 483.626 321.058 483.626 320.269C483.626 319.443 483.778 318.729 484.081 318.127C484.385 317.52 484.807 317.054 485.348 316.727C485.894 316.396 486.534 316.23 487.266 316.23C488.027 316.23 488.673 316.405 489.205 316.755C489.742 317.105 490.143 317.604 490.409 318.253C490.68 318.902 490.797 319.674 490.759 320.57H489.499V320.122C489.485 319.193 489.296 318.5 488.932 318.043C488.568 317.581 488.027 317.35 487.308 317.35C486.538 317.35 485.953 317.597 485.551 318.092C485.15 318.587 484.949 319.296 484.949 320.22C484.949 321.111 485.15 321.802 485.551 322.292C485.953 322.782 486.524 323.027 487.266 323.027C487.766 323.027 488.2 322.913 488.568 322.684C488.937 322.455 489.226 322.126 489.436 321.697L490.633 322.11C490.339 322.777 489.896 323.295 489.303 323.664C488.715 324.028 488.055 324.21 487.322 324.21ZM484.529 320.57V319.569H490.115V320.57H484.529Z" fill="black"/>
<path d="M479.124 324.21C478.415 324.21 477.817 324.035 477.332 323.685C476.847 323.33 476.478 322.852 476.226 322.25C475.979 321.643 475.855 320.964 475.855 320.213C475.855 319.452 475.979 318.771 476.226 318.169C476.478 317.567 476.847 317.093 477.332 316.748C477.822 316.403 478.422 316.23 479.131 316.23C479.831 316.23 480.433 316.405 480.937 316.755C481.446 317.1 481.835 317.574 482.106 318.176C482.377 318.778 482.512 319.457 482.512 320.213C482.512 320.969 482.377 321.648 482.106 322.25C481.835 322.852 481.446 323.33 480.937 323.685C480.433 324.035 479.829 324.21 479.124 324.21ZM475.645 327.36V316.44H476.758V322.005H476.898V327.36H475.645ZM478.97 323.069C479.469 323.069 479.882 322.943 480.209 322.691C480.536 322.439 480.781 322.098 480.944 321.669C481.107 321.235 481.189 320.75 481.189 320.213C481.189 319.681 481.107 319.2 480.944 318.771C480.785 318.342 480.538 318.001 480.202 317.749C479.871 317.497 479.448 317.371 478.935 317.371C478.445 317.371 478.039 317.492 477.717 317.735C477.395 317.973 477.155 318.307 476.996 318.736C476.837 319.161 476.758 319.653 476.758 320.213C476.758 320.764 476.835 321.256 476.989 321.69C477.148 322.119 477.39 322.458 477.717 322.705C478.044 322.948 478.461 323.069 478.97 323.069Z" fill="black"/>
<path d="M470.464 324.21C469.712 324.21 469.064 324.04 468.518 323.699C467.976 323.358 467.559 322.887 467.265 322.285C466.971 321.683 466.824 320.992 466.824 320.213C466.824 319.42 466.973 318.724 467.272 318.127C467.57 317.53 467.993 317.065 468.539 316.734C469.085 316.398 469.726 316.23 470.464 316.23C471.22 316.23 471.871 316.4 472.417 316.741C472.963 317.077 473.38 317.546 473.67 318.148C473.964 318.745 474.111 319.434 474.111 320.213C474.111 321.002 473.964 321.697 473.67 322.299C473.376 322.896 472.956 323.365 472.41 323.706C471.864 324.042 471.215 324.21 470.464 324.21ZM470.464 323.027C471.248 323.027 471.831 322.766 472.214 322.243C472.596 321.72 472.788 321.044 472.788 320.213C472.788 319.359 472.594 318.68 472.207 318.176C471.819 317.667 471.238 317.413 470.464 317.413C469.936 317.413 469.502 317.532 469.162 317.77C468.821 318.008 468.567 318.337 468.399 318.757C468.231 319.177 468.147 319.662 468.147 320.213C468.147 321.062 468.343 321.744 468.735 322.257C469.127 322.77 469.703 323.027 470.464 323.027Z" fill="black"/>
<path d="M462.158 324V316.44H463.271V318.267L463.089 318.029C463.177 317.796 463.292 317.581 463.432 317.385C463.576 317.189 463.737 317.028 463.915 316.902C464.111 316.743 464.332 316.622 464.58 316.538C464.827 316.454 465.079 316.405 465.336 316.391C465.592 316.372 465.833 316.389 466.057 316.44V317.609C465.795 317.539 465.508 317.52 465.196 317.553C464.883 317.586 464.594 317.7 464.328 317.896C464.085 318.069 463.896 318.279 463.761 318.526C463.63 318.773 463.539 319.042 463.488 319.331C463.436 319.616 463.411 319.907 463.411 320.206V324H462.158Z" fill="black"/>
<path d="M459.078 324V320.213C459.078 319.854 459.045 319.508 458.98 319.177C458.919 318.846 458.81 318.549 458.651 318.288C458.497 318.022 458.287 317.812 458.021 317.658C457.76 317.504 457.428 317.427 457.027 317.427C456.714 317.427 456.43 317.481 456.173 317.588C455.921 317.691 455.704 317.849 455.522 318.064C455.34 318.279 455.198 318.549 455.095 318.876C454.997 319.198 454.948 319.578 454.948 320.017L454.129 319.765C454.129 319.032 454.26 318.405 454.521 317.882C454.787 317.355 455.158 316.951 455.634 316.671C456.115 316.386 456.679 316.244 457.328 316.244C457.818 316.244 458.236 316.321 458.581 316.475C458.926 316.629 459.213 316.834 459.442 317.091C459.671 317.343 459.85 317.628 459.981 317.945C460.112 318.258 460.203 318.577 460.254 318.904C460.31 319.226 460.338 319.532 460.338 319.821V324H459.078ZM453.688 324V316.44H454.808V318.463H454.948V324H453.688Z" fill="black"/>
<path d="M447.969 324.21C447.404 324.21 446.931 324.107 446.548 323.902C446.17 323.692 445.883 323.417 445.687 323.076C445.496 322.735 445.4 322.362 445.4 321.956C445.4 321.559 445.475 321.216 445.624 320.927C445.778 320.633 445.993 320.39 446.268 320.199C446.543 320.003 446.872 319.849 447.255 319.737C447.614 319.639 448.016 319.555 448.459 319.485C448.907 319.41 449.36 319.343 449.817 319.282C450.274 319.221 450.701 319.163 451.098 319.107L450.65 319.366C450.664 318.694 450.529 318.197 450.244 317.875C449.964 317.553 449.479 317.392 448.788 317.392C448.331 317.392 447.929 317.497 447.584 317.707C447.243 317.912 447.003 318.248 446.863 318.715L445.68 318.358C445.862 317.695 446.214 317.175 446.737 316.797C447.26 316.419 447.948 316.23 448.802 316.23C449.488 316.23 450.076 316.354 450.566 316.601C451.061 316.844 451.415 317.212 451.63 317.707C451.737 317.94 451.805 318.195 451.833 318.47C451.861 318.741 451.875 319.025 451.875 319.324V324H450.769V322.187L451.028 322.355C450.743 322.966 450.344 323.428 449.831 323.741C449.322 324.054 448.702 324.21 447.969 324.21ZM448.158 323.167C448.606 323.167 448.993 323.088 449.32 322.929C449.651 322.766 449.917 322.553 450.118 322.292C450.319 322.026 450.449 321.737 450.51 321.424C450.58 321.191 450.617 320.932 450.622 320.647C450.631 320.358 450.636 320.136 450.636 319.982L451.07 320.171C450.664 320.227 450.265 320.281 449.873 320.332C449.481 320.383 449.11 320.439 448.76 320.5C448.41 320.556 448.095 320.624 447.815 320.703C447.61 320.768 447.416 320.852 447.234 320.955C447.057 321.058 446.912 321.191 446.8 321.354C446.693 321.513 446.639 321.711 446.639 321.949C446.639 322.154 446.69 322.35 446.793 322.537C446.9 322.724 447.064 322.875 447.283 322.992C447.507 323.109 447.799 323.167 448.158 323.167Z" fill="black"/>
<path d="M433.98 324V313.92H435.114L438.922 321.949L442.709 313.92H443.857V323.993H442.674V316.657L439.251 324H438.586L435.163 316.657V324H433.98Z" fill="black"/>
<path d="M479.439 348V340.44H480.552V342.267L480.37 342.029C480.459 341.796 480.573 341.581 480.713 341.385C480.858 341.189 481.019 341.028 481.196 340.902C481.392 340.743 481.614 340.622 481.861 340.538C482.108 340.454 482.36 340.405 482.617 340.391C482.874 340.372 483.114 340.389 483.338 340.44V341.609C483.077 341.539 482.79 341.52 482.477 341.553C482.164 341.586 481.875 341.7 481.609 341.896C481.366 342.069 481.177 342.279 481.042 342.526C480.911 342.773 480.82 343.042 480.769 343.331C480.718 343.616 480.692 343.907 480.692 344.206V348H479.439Z" fill="black"/>
<path d="M473.713 348.21C473.148 348.21 472.675 348.107 472.292 347.902C471.914 347.692 471.627 347.417 471.431 347.076C471.24 346.735 471.144 346.362 471.144 345.956C471.144 345.559 471.219 345.216 471.368 344.927C471.522 344.633 471.737 344.39 472.012 344.199C472.287 344.003 472.616 343.849 472.999 343.737C473.358 343.639 473.76 343.555 474.203 343.485C474.651 343.41 475.104 343.343 475.561 343.282C476.018 343.221 476.445 343.163 476.842 343.107L476.394 343.366C476.408 342.694 476.273 342.197 475.988 341.875C475.708 341.553 475.223 341.392 474.532 341.392C474.075 341.392 473.673 341.497 473.328 341.707C472.987 341.912 472.747 342.248 472.607 342.715L471.424 342.358C471.606 341.695 471.958 341.175 472.481 340.797C473.004 340.419 473.692 340.23 474.546 340.23C475.232 340.23 475.82 340.354 476.31 340.601C476.805 340.844 477.159 341.212 477.374 341.707C477.481 341.94 477.549 342.195 477.577 342.47C477.605 342.741 477.619 343.025 477.619 343.324V348H476.513V346.187L476.772 346.355C476.487 346.966 476.088 347.428 475.575 347.741C475.066 348.054 474.446 348.21 473.713 348.21ZM473.902 347.167C474.35 347.167 474.737 347.088 475.064 346.929C475.395 346.766 475.661 346.553 475.862 346.292C476.063 346.026 476.193 345.737 476.254 345.424C476.324 345.191 476.361 344.932 476.366 344.647C476.375 344.358 476.38 344.136 476.38 343.982L476.814 344.171C476.408 344.227 476.009 344.281 475.617 344.332C475.225 344.383 474.854 344.439 474.504 344.5C474.154 344.556 473.839 344.624 473.559 344.703C473.354 344.768 473.16 344.852 472.978 344.955C472.801 345.058 472.656 345.191 472.544 345.354C472.437 345.513 472.383 345.711 472.383 345.949C472.383 346.154 472.434 346.35 472.537 346.537C472.644 346.724 472.808 346.875 473.027 346.992C473.251 347.109 473.543 347.167 473.902 347.167Z" fill="black"/>
<path d="M468.218 348V337.71H469.464V348H468.218Z" fill="black"/>
<path d="M462.485 348.196C461.999 348.196 461.582 348.119 461.232 347.965C460.886 347.811 460.599 347.606 460.371 347.349C460.142 347.092 459.962 346.808 459.832 346.495C459.701 346.182 459.608 345.863 459.552 345.536C459.5 345.209 459.475 344.904 459.475 344.619V340.44H460.735V344.227C460.735 344.582 460.767 344.925 460.833 345.256C460.898 345.587 461.008 345.886 461.162 346.152C461.32 346.418 461.53 346.628 461.792 346.782C462.058 346.936 462.389 347.013 462.786 347.013C463.098 347.013 463.383 346.959 463.64 346.852C463.896 346.745 464.116 346.586 464.298 346.376C464.48 346.161 464.62 345.891 464.718 345.564C464.816 345.237 464.865 344.857 464.865 344.423L465.684 344.675C465.684 345.403 465.551 346.031 465.285 346.558C465.023 347.085 464.652 347.491 464.172 347.776C463.696 348.056 463.133 348.196 462.485 348.196ZM465.005 348V345.977H464.865V340.44H466.118V348H465.005Z" fill="black"/>
<path d="M454.279 351.57C453.883 351.57 453.495 351.509 453.117 351.388C452.739 351.267 452.392 351.082 452.074 350.835C451.762 350.592 451.5 350.284 451.29 349.911L452.431 349.309C452.618 349.678 452.882 349.946 453.222 350.114C453.568 350.282 453.922 350.366 454.286 350.366C454.767 350.366 455.166 350.277 455.483 350.1C455.801 349.927 456.034 349.668 456.183 349.323C456.337 348.978 456.412 348.548 456.407 348.035V345.97H456.554V340.44H457.66V348.049C457.66 348.254 457.653 348.453 457.639 348.644C457.63 348.835 457.607 349.024 457.569 349.211C457.471 349.748 457.278 350.189 456.988 350.534C456.699 350.884 456.326 351.143 455.868 351.311C455.411 351.484 454.881 351.57 454.279 351.57ZM454.188 348.21C453.484 348.21 452.879 348.035 452.375 347.685C451.871 347.33 451.482 346.852 451.206 346.25C450.936 345.648 450.8 344.969 450.8 344.213C450.8 343.457 450.936 342.778 451.206 342.176C451.482 341.574 451.871 341.1 452.375 340.755C452.879 340.405 453.481 340.23 454.181 340.23C454.895 340.23 455.495 340.403 455.98 340.748C456.466 341.093 456.832 341.567 457.079 342.169C457.331 342.771 457.457 343.452 457.457 344.213C457.457 344.964 457.331 345.643 457.079 346.25C456.832 346.852 456.466 347.33 455.98 347.685C455.495 348.035 454.898 348.21 454.188 348.21ZM454.342 347.069C454.851 347.069 455.269 346.948 455.595 346.705C455.922 346.458 456.162 346.119 456.316 345.69C456.475 345.256 456.554 344.764 456.554 344.213C456.554 343.653 456.475 343.161 456.316 342.736C456.162 342.307 455.924 341.973 455.602 341.735C455.28 341.492 454.872 341.371 454.377 341.371C453.864 341.371 453.439 341.497 453.103 341.749C452.772 342.001 452.525 342.342 452.361 342.771C452.203 343.2 452.123 343.681 452.123 344.213C452.123 344.75 452.205 345.235 452.368 345.669C452.532 346.098 452.777 346.439 453.103 346.691C453.435 346.943 453.848 347.069 454.342 347.069Z" fill="black"/>
<path d="M446.225 348.21C445.483 348.21 444.834 348.047 444.279 347.72C443.728 347.389 443.299 346.929 442.991 346.341C442.683 345.748 442.529 345.058 442.529 344.269C442.529 343.443 442.68 342.729 442.984 342.127C443.287 341.52 443.709 341.054 444.251 340.727C444.797 340.396 445.436 340.23 446.169 340.23C446.929 340.23 447.576 340.405 448.108 340.755C448.644 341.105 449.046 341.604 449.312 342.253C449.582 342.902 449.699 343.674 449.662 344.57H448.402V344.122C448.388 343.193 448.199 342.5 447.835 342.043C447.471 341.581 446.929 341.35 446.211 341.35C445.441 341.35 444.855 341.597 444.454 342.092C444.052 342.587 443.852 343.296 443.852 344.22C443.852 345.111 444.052 345.802 444.454 346.292C444.855 346.782 445.427 347.027 446.169 347.027C446.668 347.027 447.102 346.913 447.471 346.684C447.839 346.455 448.129 346.126 448.339 345.697L449.536 346.11C449.242 346.777 448.798 347.295 448.206 347.664C447.618 348.028 446.957 348.21 446.225 348.21ZM443.432 344.57V343.569H449.018V344.57H443.432Z" fill="black"/>
<path d="M433.98 348V337.92H437.963C438.061 337.92 438.178 337.925 438.313 337.934C438.448 337.939 438.579 337.953 438.705 337.976C439.251 338.06 439.708 338.247 440.077 338.536C440.45 338.825 440.73 339.192 440.917 339.635C441.104 340.074 441.197 340.561 441.197 341.098C441.197 341.877 440.994 342.554 440.588 343.128C440.182 343.697 439.587 344.054 438.803 344.199L438.327 344.276H435.226V348H433.98ZM439.979 348L437.991 343.898L439.223 343.52L441.407 348H439.979ZM435.226 343.093H437.921C438.01 343.093 438.11 343.088 438.222 343.079C438.339 343.07 438.448 343.053 438.551 343.03C438.873 342.955 439.134 342.82 439.335 342.624C439.54 342.423 439.69 342.19 439.783 341.924C439.876 341.653 439.923 341.378 439.923 341.098C439.923 340.818 439.876 340.545 439.783 340.279C439.69 340.008 439.54 339.773 439.335 339.572C439.134 339.371 438.873 339.236 438.551 339.166C438.448 339.138 438.339 339.122 438.222 339.117C438.11 339.108 438.01 339.103 437.921 339.103H435.226V343.093Z" fill="black"/>
<path d="M170.897 706.21C170.206 706.21 169.576 706.089 169.007 705.846C168.438 705.603 167.948 705.256 167.537 704.803C167.126 704.346 166.809 703.795 166.585 703.151C166.366 702.502 166.256 701.772 166.256 700.96C166.256 699.887 166.447 698.958 166.83 698.174C167.213 697.39 167.752 696.786 168.447 696.361C169.142 695.932 169.959 695.717 170.897 695.717C172.026 695.717 172.936 695.981 173.627 696.508C174.318 697.031 174.794 697.747 175.055 698.657L173.795 698.916C173.585 698.305 173.24 697.817 172.759 697.453C172.278 697.089 171.679 696.907 170.96 696.907C170.209 696.902 169.583 697.07 169.084 697.411C168.589 697.747 168.216 698.221 167.964 698.832C167.712 699.443 167.584 700.153 167.579 700.96C167.574 701.763 167.698 702.467 167.95 703.074C168.202 703.681 168.578 704.157 169.077 704.502C169.581 704.843 170.209 705.015 170.96 705.02C171.609 705.025 172.155 704.901 172.598 704.649C173.041 704.397 173.384 704.033 173.627 703.557C173.87 703.081 174.017 702.509 174.068 701.842H171.926V700.813H175.384C175.398 700.906 175.405 701.018 175.405 701.149C175.41 701.275 175.412 701.361 175.412 701.408C175.412 702.327 175.239 703.151 174.894 703.879C174.553 704.602 174.047 705.172 173.375 705.587C172.708 706.002 171.882 706.21 170.897 706.21Z" fill="black"/>
<path d="M157.082 706V695.92H158.342L163.599 703.795V695.92H164.859V706H163.599L158.342 698.118V706H157.082Z" fill="black"/>
<path d="M153.735 706V695.92H154.981V706H153.735Z" fill="black"/>
<path d="M147.622 706.21C146.619 706.21 145.767 705.988 145.067 705.545C144.367 705.102 143.833 704.486 143.464 703.697C143.1 702.908 142.918 701.996 142.918 700.96C142.918 699.924 143.1 699.012 143.464 698.223C143.833 697.434 144.367 696.818 145.067 696.375C145.767 695.932 146.619 695.71 147.622 695.71C148.789 695.71 149.748 696.006 150.499 696.599C151.255 697.192 151.775 697.99 152.06 698.993L150.793 699.329C150.588 698.578 150.221 697.985 149.694 697.551C149.167 697.117 148.476 696.9 147.622 696.9C146.871 696.9 146.245 697.07 145.746 697.411C145.247 697.752 144.871 698.228 144.619 698.839C144.367 699.446 144.239 700.153 144.234 700.96C144.229 701.763 144.353 702.47 144.605 703.081C144.857 703.688 145.235 704.164 145.739 704.509C146.243 704.85 146.871 705.02 147.622 705.02C148.476 705.02 149.167 704.803 149.694 704.369C150.221 703.93 150.588 703.338 150.793 702.591L152.06 702.927C151.775 703.926 151.255 704.724 150.499 705.321C149.748 705.914 148.789 706.21 147.622 706.21Z" fill="black"/>
<path d="M134.014 706L137.388 695.92H139.124L142.498 706H141.203L138.046 696.648H138.438L135.309 706H134.014ZM135.638 703.641V702.472H140.874V703.641H135.638Z" fill="black"/>
<path d="M126.798 706V695.92H130.781C130.879 695.92 130.996 695.925 131.131 695.934C131.267 695.939 131.397 695.953 131.523 695.976C132.069 696.06 132.527 696.247 132.895 696.536C133.269 696.825 133.549 697.192 133.735 697.635C133.922 698.074 134.015 698.561 134.015 699.098C134.015 699.63 133.92 700.118 133.728 700.561C133.542 701 133.262 701.366 132.888 701.66C132.52 701.949 132.065 702.136 131.523 702.22C131.397 702.239 131.267 702.253 131.131 702.262C130.996 702.271 130.879 702.276 130.781 702.276H128.044V706H126.798ZM128.044 701.093H130.739C130.828 701.093 130.928 701.088 131.04 701.079C131.157 701.07 131.267 701.053 131.369 701.03C131.691 700.955 131.953 700.82 132.153 700.624C132.359 700.423 132.508 700.19 132.601 699.924C132.695 699.653 132.741 699.378 132.741 699.098C132.741 698.818 132.695 698.545 132.601 698.279C132.508 698.008 132.359 697.773 132.153 697.572C131.953 697.371 131.691 697.236 131.369 697.166C131.267 697.138 131.157 697.122 131.04 697.117C130.928 697.108 130.828 697.103 130.739 697.103H128.044V701.093Z" fill="black"/>
<path d="M121.557 706.21C120.843 706.21 120.199 706.089 119.625 705.846C119.056 705.603 118.584 705.258 118.211 704.81C117.842 704.357 117.602 703.823 117.49 703.207L118.778 703.004C118.941 703.639 119.28 704.136 119.793 704.495C120.311 704.85 120.92 705.027 121.62 705.027C122.073 705.027 122.481 704.957 122.845 704.817C123.214 704.672 123.505 704.467 123.72 704.201C123.935 703.935 124.042 703.62 124.042 703.256C124.042 703.032 124.002 702.841 123.923 702.682C123.848 702.519 123.743 702.381 123.608 702.269C123.477 702.152 123.328 702.054 123.16 701.975C122.992 701.896 122.817 701.83 122.635 701.779L120.066 701.016C119.786 700.932 119.515 700.827 119.254 700.701C118.993 700.57 118.759 700.409 118.554 700.218C118.349 700.022 118.185 699.789 118.064 699.518C117.943 699.243 117.882 698.918 117.882 698.545C117.882 697.948 118.036 697.439 118.344 697.019C118.657 696.594 119.079 696.27 119.611 696.046C120.143 695.822 120.743 695.712 121.41 695.717C122.087 695.722 122.691 695.843 123.223 696.081C123.76 696.314 124.203 696.65 124.553 697.089C124.908 697.528 125.146 698.053 125.267 698.664L123.944 698.895C123.874 698.484 123.718 698.132 123.475 697.838C123.237 697.539 122.938 697.311 122.579 697.152C122.22 696.989 121.825 696.905 121.396 696.9C120.985 696.895 120.614 696.961 120.283 697.096C119.952 697.231 119.688 697.42 119.492 697.663C119.296 697.901 119.198 698.176 119.198 698.489C119.198 698.797 119.287 699.047 119.464 699.238C119.641 699.425 119.858 699.574 120.115 699.686C120.376 699.793 120.631 699.882 120.878 699.952L122.796 700.505C123.015 700.566 123.267 700.65 123.552 700.757C123.841 700.864 124.121 701.016 124.392 701.212C124.663 701.403 124.887 701.66 125.064 701.982C125.241 702.299 125.33 702.701 125.33 703.186C125.33 703.671 125.232 704.103 125.036 704.481C124.845 704.859 124.576 705.176 124.231 705.433C123.886 705.685 123.484 705.876 123.027 706.007C122.57 706.142 122.08 706.21 121.557 706.21Z" fill="black"/>
<path d="M666.124 131.21C665.121 131.21 664.269 130.988 663.569 130.545C662.869 130.102 662.335 129.486 661.966 128.697C661.602 127.908 661.42 126.996 661.42 125.96C661.42 124.924 661.602 124.012 661.966 123.223C662.335 122.434 662.869 121.818 663.569 121.375C664.269 120.932 665.121 120.71 666.124 120.71C667.291 120.71 668.25 121.006 669.001 121.599C669.757 122.192 670.277 122.99 670.562 123.993L669.295 124.329C669.09 123.578 668.723 122.985 668.196 122.551C667.669 122.117 666.978 121.9 666.124 121.9C665.373 121.9 664.747 122.07 664.248 122.411C663.749 122.752 663.373 123.228 663.121 123.839C662.869 124.446 662.741 125.153 662.736 125.96C662.731 126.763 662.855 127.47 663.107 128.081C663.359 128.688 663.737 129.164 664.241 129.509C664.745 129.85 665.373 130.02 666.124 130.02C666.978 130.02 667.669 129.803 668.196 129.369C668.723 128.93 669.09 128.338 669.295 127.591L670.562 127.927C670.277 128.926 669.757 129.724 669.001 130.321C668.25 130.914 667.291 131.21 666.124 131.21ZM676.241 131.21C675.238 131.21 674.386 130.988 673.686 130.545C672.986 130.102 672.452 129.486 672.083 128.697C671.719 127.908 671.537 126.996 671.537 125.96C671.537 124.924 671.719 124.012 672.083 123.223C672.452 122.434 672.986 121.818 673.686 121.375C674.386 120.932 675.238 120.71 676.241 120.71C677.249 120.71 678.103 120.932 678.803 121.375C679.503 121.818 680.035 122.434 680.399 123.223C680.763 124.012 680.945 124.924 680.945 125.96C680.945 126.996 680.763 127.908 680.399 128.697C680.035 129.486 679.503 130.102 678.803 130.545C678.103 130.988 677.249 131.21 676.241 131.21ZM676.241 130.02C676.993 130.025 677.618 129.857 678.117 129.516C678.621 129.171 678.997 128.692 679.244 128.081C679.496 127.47 679.622 126.763 679.622 125.96C679.622 125.153 679.496 124.446 679.244 123.839C678.997 123.232 678.621 122.759 678.117 122.418C677.618 122.077 676.993 121.905 676.241 121.9C675.49 121.895 674.865 122.063 674.365 122.404C673.871 122.745 673.497 123.221 673.245 123.832C672.993 124.443 672.865 125.153 672.86 125.96C672.856 126.763 672.979 127.467 673.231 128.074C673.483 128.681 673.859 129.157 674.358 129.502C674.862 129.843 675.49 130.015 676.241 130.02ZM682.491 131V120.92H683.737V129.817H688.413V131H682.491ZM693.468 131.21C692.464 131.21 691.613 130.988 690.913 130.545C690.213 130.102 689.678 129.486 689.31 128.697C688.946 127.908 688.764 126.996 688.764 125.96C688.764 124.924 688.946 124.012 689.31 123.223C689.678 122.434 690.213 121.818 690.913 121.375C691.613 120.932 692.464 120.71 693.468 120.71C694.476 120.71 695.33 120.932 696.03 121.375C696.73 121.818 697.262 122.434 697.626 123.223C697.99 124.012 698.172 124.924 698.172 125.96C698.172 126.996 697.99 127.908 697.626 128.697C697.262 129.486 696.73 130.102 696.03 130.545C695.33 130.988 694.476 131.21 693.468 131.21ZM693.468 130.02C694.219 130.025 694.844 129.857 695.344 129.516C695.848 129.171 696.223 128.692 696.471 128.081C696.723 127.47 696.849 126.763 696.849 125.96C696.849 125.153 696.723 124.446 696.471 123.839C696.223 123.232 695.848 122.759 695.344 122.418C694.844 122.077 694.219 121.905 693.468 121.9C692.716 121.895 692.091 122.063 691.592 122.404C691.097 122.745 690.724 123.221 690.472 123.832C690.22 124.443 690.091 125.153 690.087 125.96C690.082 126.763 690.206 127.467 690.458 128.074C690.71 128.681 691.085 129.157 691.585 129.502C692.089 129.843 692.716 130.015 693.468 130.02ZM699.578 131V120.92H703.561C703.659 120.92 703.775 120.925 703.911 120.934C704.046 120.939 704.177 120.953 704.303 120.976C704.849 121.06 705.306 121.247 705.675 121.536C706.048 121.825 706.328 122.192 706.515 122.635C706.701 123.074 706.795 123.561 706.795 124.098C706.795 124.877 706.592 125.554 706.186 126.128C705.78 126.697 705.185 127.054 704.401 127.199L703.925 127.276H700.824V131H699.578ZM705.577 131L703.589 126.898L704.821 126.52L707.005 131H705.577ZM700.824 126.093H703.519C703.607 126.093 703.708 126.088 703.82 126.079C703.936 126.07 704.046 126.053 704.149 126.03C704.471 125.955 704.732 125.82 704.933 125.624C705.138 125.423 705.287 125.19 705.381 124.924C705.474 124.653 705.521 124.378 705.521 124.098C705.521 123.818 705.474 123.545 705.381 123.279C705.287 123.008 705.138 122.773 704.933 122.572C704.732 122.371 704.471 122.236 704.149 122.166C704.046 122.138 703.936 122.122 703.82 122.117C703.708 122.108 703.607 122.103 703.519 122.103H700.824V126.093Z" fill="black"/>
<path d="M411.551 958.5C410.837 958.5 410.193 958.379 409.619 958.136C409.05 957.893 408.578 957.548 408.205 957.1C407.836 956.647 407.596 956.113 407.484 955.497L408.772 955.294C408.935 955.929 409.274 956.426 409.787 956.785C410.305 957.14 410.914 957.317 411.614 957.317C412.067 957.317 412.475 957.247 412.839 957.107C413.208 956.962 413.499 956.757 413.714 956.491C413.929 956.225 414.036 955.91 414.036 955.546C414.036 955.322 413.996 955.131 413.917 954.972C413.842 954.809 413.737 954.671 413.602 954.559C413.471 954.442 413.322 954.344 413.154 954.265C412.986 954.186 412.811 954.12 412.629 954.069L410.06 953.306C409.78 953.222 409.509 953.117 409.248 952.991C408.987 952.86 408.753 952.699 408.548 952.508C408.343 952.312 408.179 952.079 408.058 951.808C407.937 951.533 407.876 951.208 407.876 950.835C407.876 950.238 408.03 949.729 408.338 949.309C408.651 948.884 409.073 948.56 409.605 948.336C410.137 948.112 410.737 948.002 411.404 948.007C412.081 948.012 412.685 948.133 413.217 948.371C413.754 948.604 414.197 948.94 414.547 949.379C414.902 949.818 415.14 950.343 415.261 950.954L413.938 951.185C413.868 950.774 413.712 950.422 413.469 950.128C413.231 949.829 412.932 949.601 412.573 949.442C412.214 949.279 411.819 949.195 411.39 949.19C410.979 949.185 410.608 949.251 410.277 949.386C409.946 949.521 409.682 949.71 409.486 949.953C409.29 950.191 409.192 950.466 409.192 950.779C409.192 951.087 409.281 951.337 409.458 951.528C409.635 951.715 409.852 951.864 410.109 951.976C410.37 952.083 410.625 952.172 410.872 952.242L412.79 952.795C413.009 952.856 413.261 952.94 413.546 953.047C413.835 953.154 414.115 953.306 414.386 953.502C414.657 953.693 414.881 953.95 415.058 954.272C415.235 954.589 415.324 954.991 415.324 955.476C415.324 955.961 415.226 956.393 415.03 956.771C414.839 957.149 414.57 957.466 414.225 957.723C413.88 957.975 413.478 958.166 413.021 958.297C412.564 958.432 412.074 958.5 411.551 958.5Z" fill="black"/>
<path d="M402.177 958.29V949.393H398.74V948.21H406.86V949.393H403.423V958.29H402.177Z" fill="black"/>
<path d="M389.845 958.29V948.21H391.105L396.362 956.085V948.21H397.622V958.29H396.362L391.105 950.408V958.29H389.845Z" fill="black"/>
<path d="M381.792 958.29V948.21H388.162V949.393H383.038V952.55H387.322V953.733H383.038V957.107H388.162V958.29H381.792Z" fill="black"/>
<path d="M372.058 958.29V948.21H373.318L378.575 956.085V948.21H379.835V958.29H378.575L373.318 950.408V958.29H372.058Z" fill="black"/>
<path d="M365.948 958.5C364.945 958.5 364.093 958.278 363.393 957.835C362.693 957.392 362.159 956.776 361.79 955.987C361.426 955.198 361.244 954.286 361.244 953.25C361.244 952.214 361.426 951.302 361.79 950.513C362.159 949.724 362.693 949.108 363.393 948.665C364.093 948.222 364.945 948 365.948 948C366.956 948 367.81 948.222 368.51 948.665C369.21 949.108 369.742 949.724 370.106 950.513C370.47 951.302 370.652 952.214 370.652 953.25C370.652 954.286 370.47 955.198 370.106 955.987C369.742 956.776 369.21 957.392 368.51 957.835C367.81 958.278 366.956 958.5 365.948 958.5ZM365.948 957.31C366.699 957.315 367.325 957.147 367.824 956.806C368.328 956.461 368.704 955.982 368.951 955.371C369.203 954.76 369.329 954.053 369.329 953.25C369.329 952.443 369.203 951.736 368.951 951.129C368.704 950.522 368.328 950.049 367.824 949.708C367.325 949.367 366.699 949.195 365.948 949.19C365.197 949.185 364.571 949.353 364.072 949.694C363.577 950.035 363.204 950.511 362.952 951.122C362.7 951.733 362.572 952.443 362.567 953.25C362.562 954.053 362.686 954.757 362.938 955.364C363.19 955.971 363.566 956.447 364.065 956.792C364.569 957.133 365.197 957.305 365.948 957.31Z" fill="black"/>
<path d="M353.191 958.29V948.21H357.174C357.272 948.21 357.389 948.215 357.524 948.224C357.659 948.229 357.79 948.243 357.916 948.266C358.462 948.35 358.919 948.537 359.288 948.826C359.661 949.115 359.941 949.482 360.128 949.925C360.315 950.364 360.408 950.851 360.408 951.388C360.408 951.92 360.312 952.408 360.121 952.851C359.934 953.29 359.654 953.656 359.281 953.95C358.912 954.239 358.457 954.426 357.916 954.51C357.79 954.529 357.659 954.543 357.524 954.552C357.389 954.561 357.272 954.566 357.174 954.566H354.437V958.29H353.191ZM354.437 953.383H357.132C357.221 953.383 357.321 953.378 357.433 953.369C357.55 953.36 357.659 953.343 357.762 953.32C358.084 953.245 358.345 953.11 358.546 952.914C358.751 952.713 358.901 952.48 358.994 952.214C359.087 951.943 359.134 951.668 359.134 951.388C359.134 951.108 359.087 950.835 358.994 950.569C358.901 950.298 358.751 950.063 358.546 949.862C358.345 949.661 358.084 949.526 357.762 949.456C357.659 949.428 357.55 949.412 357.433 949.407C357.321 949.398 357.221 949.393 357.132 949.393H354.437V953.383Z" fill="black"/>
<path d="M341.351 958.29V948.21H342.485L346.293 956.239L350.08 948.21H351.228V958.283H350.045V950.947L346.622 958.29H345.957L342.534 950.947V958.29H341.351Z" fill="black"/>
<path d="M335.241 958.5C334.238 958.5 333.386 958.278 332.686 957.835C331.986 957.392 331.452 956.776 331.083 955.987C330.719 955.198 330.537 954.286 330.537 953.25C330.537 952.214 330.719 951.302 331.083 950.513C331.452 949.724 331.986 949.108 332.686 948.665C333.386 948.222 334.238 948 335.241 948C336.249 948 337.103 948.222 337.803 948.665C338.503 949.108 339.035 949.724 339.399 950.513C339.763 951.302 339.945 952.214 339.945 953.25C339.945 954.286 339.763 955.198 339.399 955.987C339.035 956.776 338.503 957.392 337.803 957.835C337.103 958.278 336.249 958.5 335.241 958.5ZM335.241 957.31C335.993 957.315 336.618 957.147 337.117 956.806C337.621 956.461 337.997 955.982 338.244 955.371C338.496 954.76 338.622 954.053 338.622 953.25C338.622 952.443 338.496 951.736 338.244 951.129C337.997 950.522 337.621 950.049 337.117 949.708C336.618 949.367 335.993 949.195 335.241 949.19C334.49 949.185 333.865 949.353 333.365 949.694C332.871 950.035 332.497 950.511 332.245 951.122C331.993 951.733 331.865 952.443 331.86 953.25C331.856 954.053 331.979 954.757 332.231 955.364C332.483 955.971 332.859 956.447 333.358 956.792C333.862 957.133 334.49 957.305 335.241 957.31Z" fill="black"/>
<path d="M325.124 958.5C324.121 958.5 323.269 958.278 322.569 957.835C321.869 957.392 321.335 956.776 320.966 955.987C320.602 955.198 320.42 954.286 320.42 953.25C320.42 952.214 320.602 951.302 320.966 950.513C321.335 949.724 321.869 949.108 322.569 948.665C323.269 948.222 324.121 948 325.124 948C326.291 948 327.25 948.296 328.001 948.889C328.757 949.482 329.277 950.28 329.562 951.283L328.295 951.619C328.09 950.868 327.723 950.275 327.196 949.841C326.669 949.407 325.978 949.19 325.124 949.19C324.373 949.19 323.747 949.36 323.248 949.701C322.749 950.042 322.373 950.518 322.121 951.129C321.869 951.736 321.741 952.443 321.736 953.25C321.731 954.053 321.855 954.76 322.107 955.371C322.359 955.978 322.737 956.454 323.241 956.799C323.745 957.14 324.373 957.31 325.124 957.31C325.978 957.31 326.669 957.093 327.196 956.659C327.723 956.22 328.09 955.628 328.295 954.881L329.562 955.217C329.277 956.216 328.757 957.014 328.001 957.611C327.25 958.204 326.291 958.5 325.124 958.5Z" fill="black"/>
<path d="M776.557 954.21C775.843 954.21 775.199 954.089 774.625 953.846C774.056 953.603 773.584 953.258 773.211 952.81C772.842 952.357 772.602 951.823 772.49 951.207L773.778 951.004C773.941 951.639 774.28 952.136 774.793 952.495C775.311 952.85 775.92 953.027 776.62 953.027C777.073 953.027 777.481 952.957 777.845 952.817C778.214 952.672 778.505 952.467 778.72 952.201C778.935 951.935 779.042 951.62 779.042 951.256C779.042 951.032 779.002 950.841 778.923 950.682C778.848 950.519 778.743 950.381 778.608 950.269C778.477 950.152 778.328 950.054 778.16 949.975C777.992 949.896 777.817 949.83 777.635 949.779L775.066 949.016C774.786 948.932 774.515 948.827 774.254 948.701C773.993 948.57 773.759 948.409 773.554 948.218C773.349 948.022 773.185 947.789 773.064 947.518C772.943 947.243 772.882 946.918 772.882 946.545C772.882 945.948 773.036 945.439 773.344 945.019C773.657 944.594 774.079 944.27 774.611 944.046C775.143 943.822 775.743 943.712 776.41 943.717C777.087 943.722 777.691 943.843 778.223 944.081C778.76 944.314 779.203 944.65 779.553 945.089C779.908 945.528 780.146 946.053 780.267 946.664L778.944 946.895C778.874 946.484 778.718 946.132 778.475 945.838C778.237 945.539 777.938 945.311 777.579 945.152C777.22 944.989 776.825 944.905 776.396 944.9C775.985 944.895 775.614 944.961 775.283 945.096C774.952 945.231 774.688 945.42 774.492 945.663C774.296 945.901 774.198 946.176 774.198 946.489C774.198 946.797 774.287 947.047 774.464 947.238C774.641 947.425 774.858 947.574 775.115 947.686C775.376 947.793 775.631 947.882 775.878 947.952L777.796 948.505C778.015 948.566 778.267 948.65 778.552 948.757C778.841 948.864 779.121 949.016 779.392 949.212C779.663 949.403 779.887 949.66 780.064 949.982C780.241 950.299 780.33 950.701 780.33 951.186C780.33 951.671 780.232 952.103 780.036 952.481C779.845 952.859 779.576 953.176 779.231 953.433C778.886 953.685 778.484 953.876 778.027 954.007C777.57 954.142 777.08 954.21 776.557 954.21ZM783.79 954V949.807L780.395 943.92H781.844L784.42 948.379L786.989 943.92H788.438L785.05 949.807V954H783.79ZM792.567 954.21C791.853 954.21 791.209 954.089 790.635 953.846C790.065 953.603 789.594 953.258 789.221 952.81C788.852 952.357 788.612 951.823 788.5 951.207L789.788 951.004C789.951 951.639 790.289 952.136 790.803 952.495C791.321 952.85 791.93 953.027 792.63 953.027C793.082 953.027 793.491 952.957 793.855 952.817C794.223 952.672 794.515 952.467 794.73 952.201C794.944 951.935 795.052 951.62 795.052 951.256C795.052 951.032 795.012 950.841 794.933 950.682C794.858 950.519 794.753 950.381 794.618 950.269C794.487 950.152 794.338 950.054 794.17 949.975C794.002 949.896 793.827 949.83 793.645 949.779L791.076 949.016C790.796 948.932 790.525 948.827 790.264 948.701C790.002 948.57 789.769 948.409 789.564 948.218C789.358 948.022 789.195 947.789 789.074 947.518C788.952 947.243 788.892 946.918 788.892 946.545C788.892 945.948 789.046 945.439 789.354 945.019C789.666 944.594 790.089 944.27 790.621 944.046C791.153 943.822 791.752 943.712 792.42 943.717C793.096 943.722 793.701 943.843 794.233 944.081C794.769 944.314 795.213 944.65 795.563 945.089C795.917 945.528 796.155 946.053 796.277 946.664L794.954 946.895C794.884 946.484 794.727 946.132 794.485 945.838C794.247 945.539 793.948 945.311 793.589 945.152C793.229 944.989 792.835 944.905 792.406 944.9C791.995 944.895 791.624 944.961 791.293 945.096C790.961 945.231 790.698 945.42 790.502 945.663C790.306 945.901 790.208 946.176 790.208 946.489C790.208 946.797 790.296 947.047 790.474 947.238C790.651 947.425 790.868 947.574 791.125 947.686C791.386 947.793 791.64 947.882 791.888 947.952L793.806 948.505C794.025 948.566 794.277 948.65 794.562 948.757C794.851 948.864 795.131 949.016 795.402 949.212C795.672 949.403 795.896 949.66 796.074 949.982C796.251 950.299 796.34 950.701 796.34 951.186C796.34 951.671 796.242 952.103 796.046 952.481C795.854 952.859 795.586 953.176 795.241 953.433C794.895 953.685 794.494 953.876 794.037 954.007C793.579 954.142 793.089 954.21 792.567 954.21ZM800.405 954V945.103H796.968V943.92H805.088V945.103H801.651V954H800.405ZM806.203 954V943.92H812.573V945.103H807.449V948.26H811.733V949.443H807.449V952.817H812.573V954H806.203ZM814.255 954V943.92H815.389L819.197 951.949L822.984 943.92H824.132V953.993H822.949V946.657L819.526 954H818.861L815.438 946.657V954H814.255Z" fill="white"/>
<path d="M125.998 791V789.41H122.026V788.396L124.876 782.36H126.088L123.238 788.396H125.998V785.966H127.078V788.396H127.978V789.41H127.078V791H125.998Z" fill="#888282"/>
<path d="M162.995 791.18C162.443 791.18 161.955 791.07 161.531 790.85C161.107 790.626 160.775 790.316 160.535 789.92C160.295 789.524 160.175 789.062 160.175 788.534C160.175 788.018 160.297 787.552 160.541 787.136C160.789 786.72 161.161 786.4 161.657 786.176L161.639 786.566C161.235 786.37 160.925 786.094 160.709 785.738C160.493 785.378 160.385 784.98 160.385 784.544C160.385 784.056 160.497 783.636 160.721 783.284C160.945 782.932 161.253 782.66 161.645 782.468C162.037 782.276 162.487 782.18 162.995 782.18C163.503 782.18 163.953 782.276 164.345 782.468C164.737 782.66 165.045 782.932 165.269 783.284C165.493 783.636 165.605 784.056 165.605 784.544C165.605 784.98 165.503 785.376 165.299 785.732C165.095 786.084 164.781 786.362 164.357 786.566L164.333 786.182C164.829 786.398 165.201 786.716 165.449 787.136C165.701 787.552 165.827 788.018 165.827 788.534C165.827 789.062 165.705 789.524 165.461 789.92C165.221 790.316 164.887 790.626 164.459 790.85C164.035 791.07 163.547 791.18 162.995 791.18ZM162.995 790.16C163.499 790.16 163.907 790.022 164.219 789.746C164.535 789.466 164.693 789.062 164.693 788.534C164.693 788.002 164.537 787.598 164.225 787.322C163.917 787.042 163.507 786.902 162.995 786.902C162.487 786.902 162.077 787.042 161.765 787.322C161.457 787.598 161.303 788.002 161.303 788.534C161.303 789.062 161.459 789.466 161.771 789.746C162.083 790.022 162.491 790.16 162.995 790.16ZM162.995 785.876C163.435 785.876 163.791 785.766 164.063 785.546C164.335 785.322 164.471 784.988 164.471 784.544C164.471 784.1 164.335 783.768 164.063 783.548C163.791 783.324 163.435 783.212 162.995 783.212C162.559 783.212 162.203 783.324 161.927 783.548C161.655 783.768 161.519 784.1 161.519 784.544C161.519 784.988 161.655 785.322 161.927 785.546C162.203 785.766 162.559 785.876 162.995 785.876Z" fill="#888282"/>
<path d="M197.682 791V783.542L196.056 784.526V783.332L197.682 782.36H198.768V791H197.682ZM203.997 791.18C203.449 791.18 202.951 791.048 202.503 790.784C202.059 790.52 201.705 790.16 201.441 789.704C201.181 789.244 201.051 788.726 201.051 788.15V785.276C201.051 784.672 201.181 784.138 201.441 783.674C201.705 783.206 202.065 782.842 202.521 782.582C202.981 782.318 203.505 782.186 204.093 782.186C204.569 782.186 205.011 782.284 205.419 782.48C205.831 782.672 206.177 782.95 206.457 783.314L205.659 784.022C205.487 783.77 205.263 783.57 204.987 783.422C204.711 783.274 204.413 783.2 204.093 783.2C203.713 783.2 203.375 783.292 203.079 783.476C202.787 783.656 202.557 783.896 202.389 784.196C202.221 784.492 202.137 784.812 202.137 785.156V786.89L201.903 786.626C202.155 786.266 202.475 785.978 202.863 785.762C203.251 785.546 203.671 785.438 204.123 785.438C204.659 785.438 205.139 785.564 205.563 785.816C205.991 786.068 206.327 786.41 206.571 786.842C206.819 787.27 206.943 787.752 206.943 788.288C206.943 788.824 206.809 789.31 206.541 789.746C206.273 790.182 205.915 790.53 205.467 790.79C205.023 791.05 204.533 791.18 203.997 791.18ZM203.997 790.148C204.341 790.148 204.655 790.066 204.939 789.902C205.223 789.734 205.447 789.51 205.611 789.23C205.779 788.946 205.863 788.632 205.863 788.288C205.863 787.944 205.779 787.63 205.611 787.346C205.447 787.062 205.223 786.838 204.939 786.674C204.659 786.506 204.347 786.422 204.003 786.422C203.659 786.422 203.345 786.506 203.061 786.674C202.781 786.838 202.557 787.062 202.389 787.346C202.221 787.63 202.137 787.944 202.137 788.288C202.137 788.628 202.219 788.94 202.383 789.224C202.551 789.504 202.775 789.728 203.055 789.896C203.339 790.064 203.653 790.148 203.997 790.148Z" fill="#888282"/>
<path d="M231.674 790.994L231.68 790.034L235.514 786.584C235.834 786.296 236.048 786.024 236.156 785.768C236.268 785.508 236.324 785.242 236.324 784.97C236.324 784.638 236.248 784.338 236.096 784.07C235.944 783.802 235.736 783.59 235.472 783.434C235.212 783.278 234.916 783.2 234.584 783.2C234.24 783.2 233.934 783.282 233.666 783.446C233.398 783.606 233.186 783.82 233.03 784.088C232.878 784.356 232.804 784.648 232.808 784.964H231.716C231.716 784.42 231.842 783.94 232.094 783.524C232.346 783.104 232.688 782.776 233.12 782.54C233.556 782.3 234.05 782.18 234.602 782.18C235.138 782.18 235.618 782.304 236.042 782.552C236.466 782.796 236.8 783.13 237.044 783.554C237.292 783.974 237.416 784.45 237.416 784.982C237.416 785.358 237.368 785.684 237.272 785.96C237.18 786.236 237.036 786.492 236.84 786.728C236.644 786.96 236.398 787.208 236.102 787.472L232.916 790.334L232.778 789.974H237.416V790.994H231.674ZM242.349 791V789.41H238.377V788.396L241.227 782.36H242.439L239.589 788.396H242.349V785.966H243.429V788.396H244.329V789.41H243.429V791H242.349Z" fill="#888282"/>
<path d="M273.366 791.168C272.938 791.168 272.54 791.09 272.172 790.934C271.804 790.774 271.486 790.55 271.218 790.262C270.954 789.97 270.76 789.624 270.636 789.224L271.662 788.93C271.794 789.33 272.014 789.634 272.322 789.842C272.63 790.05 272.976 790.152 273.36 790.148C273.712 790.14 274.016 790.06 274.272 789.908C274.532 789.752 274.732 789.54 274.872 789.272C275.016 789.004 275.088 788.694 275.088 788.342C275.088 787.806 274.928 787.372 274.608 787.04C274.288 786.704 273.868 786.536 273.348 786.536C273.204 786.536 273.052 786.556 272.892 786.596C272.736 786.636 272.59 786.692 272.454 786.764L271.938 785.918L275.142 783.02L275.28 783.38H270.978V782.36H276.072V783.386L273.342 786.002L273.33 785.624C273.902 785.584 274.402 785.678 274.83 785.906C275.258 786.134 275.59 786.46 275.826 786.884C276.066 787.308 276.186 787.794 276.186 788.342C276.186 788.894 276.062 789.382 275.814 789.806C275.566 790.23 275.23 790.564 274.806 790.808C274.382 791.048 273.902 791.168 273.366 791.168ZM277.506 790.994L277.512 790.034L281.346 786.584C281.666 786.296 281.88 786.024 281.988 785.768C282.1 785.508 282.156 785.242 282.156 784.97C282.156 784.638 282.08 784.338 281.928 784.07C281.776 783.802 281.568 783.59 281.304 783.434C281.044 783.278 280.748 783.2 280.416 783.2C280.072 783.2 279.766 783.282 279.498 783.446C279.23 783.606 279.018 783.82 278.862 784.088C278.71 784.356 278.636 784.648 278.64 784.964H277.548C277.548 784.42 277.674 783.94 277.926 783.524C278.178 783.104 278.52 782.776 278.952 782.54C279.388 782.3 279.882 782.18 280.434 782.18C280.97 782.18 281.45 782.304 281.874 782.552C282.298 782.796 282.632 783.13 282.876 783.554C283.124 783.974 283.248 784.45 283.248 784.982C283.248 785.358 283.2 785.684 283.104 785.96C283.012 786.236 282.868 786.492 282.672 786.728C282.476 786.96 282.23 787.208 281.934 787.472L278.748 790.334L278.61 789.974H283.248V790.994H277.506Z" fill="#888282"/>
<path d="M311.985 791.18C311.437 791.18 310.939 791.048 310.491 790.784C310.047 790.52 309.693 790.16 309.429 789.704C309.169 789.244 309.039 788.726 309.039 788.15V785.276C309.039 784.672 309.169 784.138 309.429 783.674C309.693 783.206 310.053 782.842 310.509 782.582C310.969 782.318 311.493 782.186 312.081 782.186C312.557 782.186 312.999 782.284 313.407 782.48C313.819 782.672 314.165 782.95 314.445 783.314L313.647 784.022C313.475 783.77 313.251 783.57 312.975 783.422C312.699 783.274 312.401 783.2 312.081 783.2C311.701 783.2 311.363 783.292 311.067 783.476C310.775 783.656 310.545 783.896 310.377 784.196C310.209 784.492 310.125 784.812 310.125 785.156V786.89L309.891 786.626C310.143 786.266 310.463 785.978 310.851 785.762C311.239 785.546 311.659 785.438 312.111 785.438C312.647 785.438 313.127 785.564 313.551 785.816C313.979 786.068 314.315 786.41 314.559 786.842C314.807 787.27 314.931 787.752 314.931 788.288C314.931 788.824 314.797 789.31 314.529 789.746C314.261 790.182 313.903 790.53 313.455 790.79C313.011 791.05 312.521 791.18 311.985 791.18ZM311.985 790.148C312.329 790.148 312.643 790.066 312.927 789.902C313.211 789.734 313.435 789.51 313.599 789.23C313.767 788.946 313.851 788.632 313.851 788.288C313.851 787.944 313.767 787.63 313.599 787.346C313.435 787.062 313.211 786.838 312.927 786.674C312.647 786.506 312.335 786.422 311.991 786.422C311.647 786.422 311.333 786.506 311.049 786.674C310.769 786.838 310.545 787.062 310.377 787.346C310.209 787.63 310.125 787.944 310.125 788.288C310.125 788.628 310.207 788.94 310.371 789.224C310.539 789.504 310.763 789.728 311.043 789.896C311.327 790.064 311.641 790.148 311.985 790.148ZM320.224 791V789.41H316.252V788.396L319.102 782.36H320.314L317.464 788.396H320.224V785.966H321.304V788.396H322.204V789.41H321.304V791H320.224Z" fill="#888282"/>
<rect x="185" y="119" width="20" height="20" fill="#00C2FF"/>
<rect x="185" y="403" width="190" height="10" fill="#C0C0C0"/>
<rect x="185" y="427" width="190" height="10" fill="#C0C0C0"/>
<rect x="185" y="451" width="190" height="10" fill="#C0C0C0"/>
<rect x="185" y="475" width="118" height="10" fill="#C0C0C0"/>
<circle cx="188.5" cy="575.5" r="3.5" fill="#CBCBCB"/>
<circle cx="216.5" cy="575.5" r="3.5" fill="#CBCBCB"/>
<circle cx="244.5" cy="575.5" r="3.5" fill="#CBCBCB"/>
<circle cx="272.5" cy="575.5" r="3.5" fill="#00C2FF"/>
<rect x="121" y="754" width="8" height="7" fill="#D9D9D9"/>
<rect x="159" y="750" width="8" height="11" fill="#D9D9D9"/>
<rect x="197" y="745" width="8" height="16" fill="#D9D9D9"/>
<rect x="235" y="741" width="8" height="20" fill="#D9D9D9"/>
<rect x="273" y="735" width="8" height="26" fill="#D9D9D9"/>
<rect x="311" y="725" width="8" height="36" fill="#D9D9D9"/>
<rect x="661" y="160" width="64" height="64" fill="#00C2FF"/>
<rect x="752" y="160" width="64" height="64" fill="#5F5F61"/>
<rect x="843" y="160" width="64" height="64" fill="#C0C0C0"/>
<rect x="934" y="160" width="64" height="64" fill="#DEDEDF"/>
<rect x="1025.5" y="160.5" width="63" height="63" stroke="#959595"/>
<rect x="320" y="999" width="93" height="27" fill="#00C2FF"/>
<rect x="320" y="1052" width="203" height="27" fill="#00C2FF"/>
<rect x="430.5" y="999.5" width="92" height="26" stroke="#858585"/>
<rect x="320" y="1113" width="24" height="24" fill="#00C2FF"/>
<rect x="362.5" y="1113.5" width="23" height="23" stroke="#858585"/>
<circle cx="468" cy="1125" r="12" fill="#D9D9D9"/>
<circle cx="509" cy="1125" r="9" fill="#D9D9D9"/>
<circle cx="299.5" cy="882.5" r="4.5" fill="#858585"/>
<circle cx="627.5" cy="260.5" r="4.5" fill="#858585"/>
<circle cx="143.5" cy="352.5" r="4.5" fill="#858585"/>
<circle cx="1122.5" cy="260.5" r="4.5" fill="#858585"/>
<line x1="553" y1="1074.5" x2="681" y2="1074.5" stroke="#858585"/>
<line x1="772" y1="998.5" x2="908" y2="998.5" stroke="white"/>
<line x1="772" y1="1022.5" x2="908" y2="1022.5" stroke="white"/>
<line x1="772" y1="1046.5" x2="908" y2="1046.5" stroke="white" stroke-dasharray="2 2"/>
<line x1="772" y1="1058.5" x2="908" y2="1058.5" stroke="white" stroke-dasharray="10 10"/>
<line x1="772" y1="1069.5" x2="908" y2="1069.5" stroke="white" stroke-dasharray="5 5"/>
<line x1="553" y1="1103.5" x2="681" y2="1103.5" stroke="#858585"/>
<line x1="553" y1="1132.5" x2="681" y2="1132.5" stroke="#858585"/>
<line x1="520.639" y1="881.654" x2="1028.64" y2="352.654" stroke="#D0CECE"/>
<line y1="639.5" x2="1254" y2="639.5" stroke="#858585"/>
<line x1="752.5" y1="397" x2="752.5" y2="884" stroke="#E7E6E6"/>
<line x1="414.5" y1="2.18557e-08" x2="414.5" y2="404" stroke="#858585"/>
<circle cx="752.5" cy="639.5" r="4.5" fill="#858585"/>
<circle cx="752.5" cy="487.5" r="4.5" fill="#858585"/>
<circle cx="857.5" cy="531.5" r="4.5" fill="#858585"/>
<circle cx="994.5" cy="639.5" r="4.5" fill="#858585"/>
<line x1="627.5" y1="2.18557e-08" x2="627.5" y2="404" stroke="#858585"/>
<line x1="627" y1="260.5" x2="1254" y2="260.5" stroke="#858585"/>
<line x1="1122.5" y1="116" x2="1122.5" y2="882" stroke="#858585"/>
<line x1="299.5" y1="884" x2="299.5" y2="1254" stroke="#858585"/>
<line x1="417" y1="882.5" y2="882.5" stroke="#858585"/>
<line x1="144" y1="352.5" x2="406" y2="352.5" stroke="#858585"/>
<line x1="144.5" y1="143" x2="144.5" y2="352" stroke="#858585"/>
<path d="M783.5 1098L786.158 1103.84L792.535 1104.56L787.801 1108.9L789.084 1115.19L783.5 1112.02L777.916 1115.19L779.199 1108.9L774.465 1104.56L780.842 1103.84L783.5 1098Z" fill="white"/>
<path d="M808.5 1098L811.158 1103.84L817.535 1104.56L812.801 1108.9L814.084 1115.19L808.5 1112.02L802.916 1115.19L804.199 1108.9L799.465 1104.56L805.842 1103.84L808.5 1098Z" fill="white"/>
<path d="M833.5 1098L836.158 1103.84L842.535 1104.56L837.801 1108.9L839.084 1115.19L833.5 1112.02L827.916 1115.19L829.199 1108.9L824.465 1104.56L830.842 1103.84L833.5 1098Z" fill="white"/>
<path d="M858.5 1098L861.158 1103.84L867.535 1104.56L862.801 1108.9L864.084 1115.19L858.5 1112.02L852.916 1115.19L854.199 1108.9L849.465 1104.56L855.842 1103.84L858.5 1098Z" fill="white"/>
<path d="M883.5 1098L886.158 1103.84L892.535 1104.56L887.801 1108.9L889.084 1115.19L883.5 1112.02L877.916 1115.19L879.199 1108.9L874.465 1104.56L880.842 1103.84L883.5 1098Z" fill="white"/>
<path d="M908.5 1098L911.158 1103.84L917.535 1104.56L912.801 1108.9L914.084 1115.19L908.5 1112.02L902.916 1115.19L904.199 1108.9L899.465 1104.56L905.842 1103.84L908.5 1098Z" fill="white"/>
</svg>
