<?xml version="1.0" encoding="UTF-8"?>
<svg xmlns="http://www.w3.org/2000/svg" xmlns:xlink="http://www.w3.org/1999/xlink" version="1.1" viewBox="0 0 448.95 409.13">
  <!-- Generator: Adobe Illustrator 30.6.0, SVG Export Plug-In . SVG Version: 2.1.4 Build 109)  -->
  <defs>
    <style>
      .st0 {
        stroke: url(#linear-gradient4);
      }

      .st0, .st1 {
        stroke-width: .53px;
      }

      .st0, .st1, .st2, .st3 {
        fill: none;
        stroke-miterlimit: 10;
      }

      .st4 {
        fill: url(#linear-gradient2);
      }

      .st5 {
        fill: url(#linear-gradient1);
      }

      .st6 {
        fill: url(#linear-gradient9);
      }

      .st7 {
        fill: url(#linear-gradient3);
      }

      .st8 {
        fill: url(#linear-gradient6);
      }

      .st9 {
        fill: url(#linear-gradient8);
      }

      .st10 {
        fill: url(#linear-gradient7);
      }

      .st11 {
        fill: url(#linear-gradient5);
      }

      .st12 {
        fill: url(#linear-gradient31);
      }

      .st13 {
        fill: url(#linear-gradient39);
      }

      .st14 {
        fill: url(#linear-gradient37);
      }

      .st15 {
        fill: url(#linear-gradient35);
      }

      .st16 {
        fill: url(#linear-gradient33);
      }

      .st17 {
        fill: url(#linear-gradient41);
      }

      .st18 {
        fill: url(#linear-gradient29);
      }

      .st19 {
        fill: url(#linear-gradient18);
      }

      .st20 {
        fill: url(#linear-gradient13);
      }

      .st21 {
        fill: url(#linear-gradient12);
      }

      .st22 {
        fill: url(#linear-gradient15);
      }

      .st23 {
        fill: url(#linear-gradient16);
      }

      .st24 {
        fill: url(#linear-gradient11);
      }

      .st25 {
        fill: url(#linear-gradient10);
      }

      .st26 {
        fill: url(#linear-gradient17);
      }

      .st27 {
        fill: url(#linear-gradient14);
      }

      .st28 {
        fill: url(#linear-gradient19);
      }

      .st29 {
        fill: url(#linear-gradient23);
      }

      .st30 {
        fill: url(#linear-gradient22);
      }

      .st31 {
        fill: url(#linear-gradient25);
      }

      .st32 {
        fill: url(#linear-gradient21);
      }

      .st33 {
        fill: url(#linear-gradient20);
      }

      .st34 {
        fill: url(#linear-gradient27);
      }

      .st35 {
        fill: url(#radial-gradient);
      }

      .st36 {
        fill: url(#linear-gradient);
      }

      .st1 {
        stroke: #0082f5;
      }

      .st37, .st38, .st39, .st40, .st41, .st42, .st43, .st44, .st45, .st46, .st47 {
        isolation: isolate;
      }

      .st38 {
        fill: url(#linear-gradient28);
      }

      .st38, .st39, .st40, .st41, .st42, .st43, .st44, .st45, .st46, .st47 {
        mix-blend-mode: multiply;
      }

      .st39 {
        fill: url(#linear-gradient24);
      }

      .st40 {
        fill: url(#linear-gradient26);
      }

      .st41 {
        fill: url(#linear-gradient30);
      }

      .st42 {
        fill: url(#linear-gradient32);
      }

      .st43 {
        fill: url(#linear-gradient38);
      }

      .st44 {
        fill: url(#linear-gradient34);
      }

      .st45 {
        fill: url(#linear-gradient36);
      }

      .st46 {
        fill: url(#linear-gradient42);
      }

      .st47 {
        fill: url(#linear-gradient40);
      }

      .st48 {
        fill: #00387c;
      }

      .st49 {
        fill: #fff;
      }

      .st50 {
        fill: url(#radial-gradient1);
      }

      .st51 {
        fill: url(#radial-gradient2);
      }

      .st2 {
        stroke: #17b2ff;
        stroke-width: .79px;
      }

      .st3 {
        stroke: #00387c;
        stroke-width: 1.05px;
      }
    </style>
    <linearGradient id="linear-gradient" x1="350.31" y1="361.38" x2="365.86" y2="295.54" gradientTransform="translate(0 409.42) scale(1 -1)" gradientUnits="userSpaceOnUse">
      <stop offset="0" stop-color="#fff"/>
      <stop offset=".09" stop-color="#f8fbfd"/>
      <stop offset=".22" stop-color="#e7f2f7"/>
      <stop offset=".36" stop-color="#cbe3ee"/>
      <stop offset=".52" stop-color="#a3cde1"/>
      <stop offset=".69" stop-color="#70b2d1"/>
      <stop offset=".86" stop-color="#3291bd"/>
      <stop offset=".99" stop-color="#0076ad"/>
    </linearGradient>
    <linearGradient id="linear-gradient1" x1="320.23" y1="364.29" x2="337.98" y2="302.85" gradientTransform="translate(0 409.42) scale(1 -1)" gradientUnits="userSpaceOnUse">
      <stop offset="0" stop-color="#67d2ff"/>
      <stop offset="1" stop-color="#0082f5"/>
    </linearGradient>
    <linearGradient id="linear-gradient2" x1="113.43" y1="306.39" x2="147.21" y2="148.57" gradientTransform="translate(0 409.42) scale(1 -1)" gradientUnits="userSpaceOnUse">
      <stop offset="0" stop-color="#67d2ff"/>
      <stop offset="1" stop-color="#0082f5"/>
    </linearGradient>
    <linearGradient id="linear-gradient3" x1="367.86" y1="16.36" x2="307.63" y2="205.59" gradientTransform="translate(0 409.42) scale(1 -1)" gradientUnits="userSpaceOnUse">
      <stop offset="0" stop-color="#0fa3fe"/>
      <stop offset=".41" stop-color="#0c9ffd"/>
      <stop offset=".78" stop-color="#0694fd"/>
      <stop offset="1" stop-color="#008afd"/>
    </linearGradient>
    <linearGradient id="linear-gradient4" x1="144.63" y1="128.78" x2="145.4" y2="60.33" gradientTransform="translate(0 409.42) scale(1 -1)" gradientUnits="userSpaceOnUse">
      <stop offset=".53" stop-color="#a7e2fb"/>
      <stop offset=".65" stop-color="#a3e0fb"/>
      <stop offset=".75" stop-color="#98dcfb"/>
      <stop offset=".84" stop-color="#86d6fc"/>
      <stop offset=".93" stop-color="#6dcdfd"/>
      <stop offset="1" stop-color="#55c5ff"/>
    </linearGradient>
    <linearGradient id="linear-gradient5" x1="206.87" y1="318.34" x2="237.29" y2="211.21" gradientTransform="translate(0 409.42) scale(1 -1)" gradientUnits="userSpaceOnUse">
      <stop offset="0" stop-color="#fff"/>
      <stop offset=".23" stop-color="#fcfdfe"/>
      <stop offset=".36" stop-color="#f4f9fb"/>
      <stop offset=".46" stop-color="#e6f1f7"/>
      <stop offset=".55" stop-color="#d3e7f0"/>
      <stop offset=".63" stop-color="#b9d9e8"/>
      <stop offset=".71" stop-color="#9ac9de"/>
      <stop offset=".78" stop-color="#75b5d2"/>
      <stop offset=".84" stop-color="#4a9dc4"/>
      <stop offset=".9" stop-color="#1a84b5"/>
      <stop offset=".94" stop-color="#0076ad"/>
    </linearGradient>
    <linearGradient id="linear-gradient6" x1="220.8" y1="170.71" x2="232.45" y2="103.23" gradientTransform="translate(0 409.42) scale(1 -1)" gradientUnits="userSpaceOnUse">
      <stop offset="0" stop-color="#67d2ff"/>
      <stop offset="1" stop-color="#0082f5"/>
    </linearGradient>
    <radialGradient id="radial-gradient" cx="367.87" cy="324.78" fx="367.87" fy="324.78" r="21.43" gradientTransform="translate(-8.9236 1072.9361) rotate(.4828) scale(1 -2.6905)" gradientUnits="userSpaceOnUse">
      <stop offset="0" stop-color="#83e5ff"/>
      <stop offset="0" stop-color="#84e5ff"/>
      <stop offset=".34" stop-color="#b8f0ff"/>
      <stop offset=".63" stop-color="#def8ff"/>
      <stop offset=".86" stop-color="#f6fdff"/>
      <stop offset="1" stop-color="#fff"/>
    </radialGradient>
    <radialGradient id="radial-gradient1" cx="292.3" cy="306.7" fx="292.3" fy="306.7" r="27.26" gradientTransform="translate(201.79 815.08) rotate(-14.54) scale(1 -1.87)" gradientUnits="userSpaceOnUse">
      <stop offset="0" stop-color="#83e5ff"/>
      <stop offset="1" stop-color="#fff"/>
    </radialGradient>
    <radialGradient id="radial-gradient2" cx="228.26" cy="305.86" fx="228.26" fy="305.86" r="28.19" gradientTransform="translate(345.54 804.05) rotate(-24.93) scale(1 -1.87)" gradientUnits="userSpaceOnUse">
      <stop offset="0" stop-color="#83e5ff"/>
      <stop offset="1" stop-color="#fff"/>
    </radialGradient>
    <linearGradient id="linear-gradient7" x1="199.44" y1="234.91" x2="210.2" y2="174.06" gradientTransform="translate(0 409.42) scale(1 -1)" gradientUnits="userSpaceOnUse">
      <stop offset="0" stop-color="#afe6ff"/>
      <stop offset=".35" stop-color="#a1daff"/>
      <stop offset="1" stop-color="#7ebbff"/>
      <stop offset="1" stop-color="#7ebbff"/>
    </linearGradient>
    <linearGradient id="linear-gradient8" x1="-39.29" y1="299.23" x2="72.38" y2="203.51" gradientTransform="translate(68.73 409.42) rotate(-180)" gradientUnits="userSpaceOnUse">
      <stop offset=".34" stop-color="#fff"/>
      <stop offset=".45" stop-color="#fbfdff"/>
      <stop offset=".56" stop-color="#f0faff"/>
      <stop offset=".65" stop-color="#def3ff"/>
      <stop offset=".75" stop-color="#c5ebff"/>
      <stop offset=".84" stop-color="#a4e0ff"/>
      <stop offset=".92" stop-color="#7dd2ff"/>
      <stop offset="1" stop-color="#55c5ff"/>
    </linearGradient>
    <linearGradient id="linear-gradient9" x1="78.67" y1="262.86" x2="78.67" y2="257.46" gradientTransform="translate(0 409.42) scale(1 -1)" gradientUnits="userSpaceOnUse">
      <stop offset="0" stop-color="#afe6ff"/>
      <stop offset=".31" stop-color="#abe2ff"/>
      <stop offset=".57" stop-color="#a0d9ff"/>
      <stop offset=".83" stop-color="#8ec9ff"/>
      <stop offset="1" stop-color="#7ebbff"/>
    </linearGradient>
    <linearGradient id="linear-gradient10" x1="40.57" y1="262.37" x2="40.66" y2="257.62" gradientTransform="translate(0 409.42) scale(1 -1)" gradientUnits="userSpaceOnUse">
      <stop offset="0" stop-color="#afe6ff"/>
      <stop offset=".31" stop-color="#abe2ff"/>
      <stop offset=".57" stop-color="#a0d9ff"/>
      <stop offset=".83" stop-color="#8ec9ff"/>
      <stop offset="1" stop-color="#7ebbff"/>
    </linearGradient>
    <linearGradient id="linear-gradient11" x1="65.03" y1="297.38" x2="42.02" y2="254.27" gradientTransform="translate(0 409.42) scale(1 -1)" gradientUnits="userSpaceOnUse">
      <stop offset="0" stop-color="#fff"/>
      <stop offset=".09" stop-color="#f8fbfd"/>
      <stop offset=".22" stop-color="#e7f2f7"/>
      <stop offset=".36" stop-color="#cbe3ee"/>
      <stop offset=".52" stop-color="#a3cde1"/>
      <stop offset=".69" stop-color="#70b2d1"/>
      <stop offset=".86" stop-color="#3291bd"/>
      <stop offset=".99" stop-color="#0076ad"/>
    </linearGradient>
    <linearGradient id="linear-gradient12" x1="310.19" y1="305.44" x2="294.76" y2="353.91" gradientTransform="translate(0 409.42) scale(1 -1)" gradientUnits="userSpaceOnUse">
      <stop offset="0" stop-color="#0fa3fe"/>
      <stop offset=".41" stop-color="#0c9ffd"/>
      <stop offset=".78" stop-color="#0694fd"/>
      <stop offset="1" stop-color="#008afd"/>
    </linearGradient>
    <linearGradient id="linear-gradient13" x1="289.67" y1="361.22" x2="285.67" y2="344.43" gradientTransform="translate(0 409.42) scale(1 -1)" gradientUnits="userSpaceOnUse">
      <stop offset="0" stop-color="#afe6ff"/>
      <stop offset=".31" stop-color="#abe2ff"/>
      <stop offset=".57" stop-color="#a0d9ff"/>
      <stop offset=".83" stop-color="#8ec9ff"/>
      <stop offset="1" stop-color="#7ebbff"/>
    </linearGradient>
    <linearGradient id="linear-gradient14" x1="284.67" y1="351.82" x2="284.29" y2="324.62" gradientTransform="translate(0 409.42) scale(1 -1)" gradientUnits="userSpaceOnUse">
      <stop offset=".37" stop-color="#fff"/>
      <stop offset=".48" stop-color="#fbfdff"/>
      <stop offset=".58" stop-color="#f0faff"/>
      <stop offset=".67" stop-color="#def3ff"/>
      <stop offset=".76" stop-color="#c5ebff"/>
      <stop offset=".85" stop-color="#a4e0ff"/>
      <stop offset=".93" stop-color="#7dd2ff"/>
      <stop offset="1" stop-color="#55c5ff"/>
    </linearGradient>
    <linearGradient id="linear-gradient15" x1="368.31" y1="323.06" x2="374" y2="323.06" gradientTransform="translate(0 409.42) scale(1 -1)" gradientUnits="userSpaceOnUse">
      <stop offset="0" stop-color="#67d2ff"/>
      <stop offset="1" stop-color="#0082f5"/>
    </linearGradient>
    <linearGradient id="linear-gradient16" x1="396.07" y1="295.76" x2="436.28" y2="295.76" gradientTransform="translate(0 409.42) scale(1 -1)" gradientUnits="userSpaceOnUse">
      <stop offset="0" stop-color="#67d2ff"/>
      <stop offset="1" stop-color="#0082f5"/>
    </linearGradient>
    <linearGradient id="linear-gradient17" x1="396.07" y1="289.02" x2="421.57" y2="289.02" gradientTransform="translate(0 409.42) scale(1 -1)" gradientUnits="userSpaceOnUse">
      <stop offset="0" stop-color="#67d2ff"/>
      <stop offset="1" stop-color="#0082f5"/>
    </linearGradient>
    <linearGradient id="linear-gradient18" x1="137.23" y1="303.33" x2="145.28" y2="303.33" gradientTransform="translate(0 409.42) scale(1 -1)" gradientUnits="userSpaceOnUse">
      <stop offset="0" stop-color="#67d2ff"/>
      <stop offset="1" stop-color="#0082f5"/>
    </linearGradient>
    <linearGradient id="linear-gradient19" x1="202.29" y1="402.5" x2="252.98" y2="402.5" gradientTransform="translate(0 409.42) scale(1 -1)" gradientUnits="userSpaceOnUse">
      <stop offset="0" stop-color="#67d2ff"/>
      <stop offset="1" stop-color="#0082f5"/>
    </linearGradient>
    <linearGradient id="linear-gradient20" x1="202.29" y1="389.02" x2="245.86" y2="389.02" gradientTransform="translate(0 409.42) scale(1 -1)" gradientUnits="userSpaceOnUse">
      <stop offset="0" stop-color="#67d2ff"/>
      <stop offset="1" stop-color="#0082f5"/>
    </linearGradient>
    <linearGradient id="linear-gradient21" x1="202.29" y1="395.76" x2="234.65" y2="395.76" gradientTransform="translate(0 409.42) scale(1 -1)" gradientUnits="userSpaceOnUse">
      <stop offset="0" stop-color="#67d2ff"/>
      <stop offset="1" stop-color="#0082f5"/>
    </linearGradient>
    <linearGradient id="linear-gradient22" x1="202.13" y1="10.55" x2="200.93" y2="61.28" gradientTransform="translate(0 409.42) scale(1 -1)" gradientUnits="userSpaceOnUse">
      <stop offset="0" stop-color="#fff"/>
      <stop offset="1" stop-color="#7ebbff"/>
    </linearGradient>
    <linearGradient id="linear-gradient23" x1="155.38" y1="5.41" x2="155.38" y2="21.93" gradientTransform="translate(0 409.42) scale(1 -1)" gradientUnits="userSpaceOnUse">
      <stop offset="0" stop-color="#0fa3fe"/>
      <stop offset=".41" stop-color="#0c9ffd"/>
      <stop offset=".78" stop-color="#0694fd"/>
      <stop offset="1" stop-color="#008afd"/>
    </linearGradient>
    <linearGradient id="linear-gradient24" x1="155.38" y1="8.81" x2="155.38" y2="23.92" gradientTransform="translate(0 409.42) scale(1 -1)" gradientUnits="userSpaceOnUse">
      <stop offset="0" stop-color="#0fa3fe"/>
      <stop offset=".35" stop-color="#0999fd" stop-opacity=".6"/>
      <stop offset=".67" stop-color="#0490fd" stop-opacity=".28"/>
      <stop offset=".89" stop-color="#018bfd" stop-opacity=".08"/>
      <stop offset=".99" stop-color="#008afd" stop-opacity="0"/>
    </linearGradient>
    <linearGradient id="linear-gradient25" x1="165.69" y1="2.6" x2="165.69" y2="31.96" gradientTransform="translate(0 409.42) scale(1 -1)" gradientUnits="userSpaceOnUse">
      <stop offset="0" stop-color="#0fa3fe"/>
      <stop offset=".41" stop-color="#0c9ffd"/>
      <stop offset=".78" stop-color="#0694fd"/>
      <stop offset="1" stop-color="#008afd"/>
    </linearGradient>
    <linearGradient id="linear-gradient26" x1="165.69" y1="8.64" x2="165.69" y2="35.48" gradientTransform="translate(0 409.42) scale(1 -1)" gradientUnits="userSpaceOnUse">
      <stop offset="0" stop-color="#0fa3fe"/>
      <stop offset=".35" stop-color="#0999fd" stop-opacity=".6"/>
      <stop offset=".67" stop-color="#0490fd" stop-opacity=".28"/>
      <stop offset=".89" stop-color="#018bfd" stop-opacity=".08"/>
      <stop offset=".99" stop-color="#008afd" stop-opacity="0"/>
    </linearGradient>
    <linearGradient id="linear-gradient27" x1="176.02" y1="3.86" x2="176.02" y2="27.45" gradientTransform="translate(0 409.42) scale(1 -1)" gradientUnits="userSpaceOnUse">
      <stop offset="0" stop-color="#0fa3fe"/>
      <stop offset=".41" stop-color="#0c9ffd"/>
      <stop offset=".78" stop-color="#0694fd"/>
      <stop offset="1" stop-color="#008afd"/>
    </linearGradient>
    <linearGradient id="linear-gradient28" x1="176.02" y1="8.72" x2="176.02" y2="30.28" gradientTransform="translate(0 409.42) scale(1 -1)" gradientUnits="userSpaceOnUse">
      <stop offset="0" stop-color="#0fa3fe"/>
      <stop offset=".35" stop-color="#0999fd" stop-opacity=".6"/>
      <stop offset=".67" stop-color="#0490fd" stop-opacity=".28"/>
      <stop offset=".89" stop-color="#018bfd" stop-opacity=".08"/>
      <stop offset=".99" stop-color="#008afd" stop-opacity="0"/>
    </linearGradient>
    <linearGradient id="linear-gradient29" x1="186.32" y1="5.79" x2="186.32" y2="20.56" gradientTransform="translate(0 409.42) scale(1 -1)" gradientUnits="userSpaceOnUse">
      <stop offset="0" stop-color="#0fa3fe"/>
      <stop offset=".41" stop-color="#0c9ffd"/>
      <stop offset=".78" stop-color="#0694fd"/>
      <stop offset="1" stop-color="#008afd"/>
    </linearGradient>
    <linearGradient id="linear-gradient30" x1="186.32" y1="8.83" x2="186.32" y2="22.33" gradientTransform="translate(0 409.42) scale(1 -1)" gradientUnits="userSpaceOnUse">
      <stop offset="0" stop-color="#0fa3fe"/>
      <stop offset=".35" stop-color="#0999fd" stop-opacity=".6"/>
      <stop offset=".67" stop-color="#0490fd" stop-opacity=".28"/>
      <stop offset=".89" stop-color="#018bfd" stop-opacity=".08"/>
      <stop offset=".99" stop-color="#008afd" stop-opacity="0"/>
    </linearGradient>
    <linearGradient id="linear-gradient31" x1="196.64" y1="4.39" x2="196.64" y2="25.57" gradientTransform="translate(0 409.42) scale(1 -1)" gradientUnits="userSpaceOnUse">
      <stop offset="0" stop-color="#0fa3fe"/>
      <stop offset=".41" stop-color="#0c9ffd"/>
      <stop offset=".78" stop-color="#0694fd"/>
      <stop offset="1" stop-color="#008afd"/>
    </linearGradient>
    <linearGradient id="linear-gradient32" x1="196.64" y1="8.75" x2="196.64" y2="28.11" gradientTransform="translate(0 409.42) scale(1 -1)" gradientUnits="userSpaceOnUse">
      <stop offset="0" stop-color="#0fa3fe"/>
      <stop offset=".35" stop-color="#0999fd" stop-opacity=".6"/>
      <stop offset=".67" stop-color="#0490fd" stop-opacity=".28"/>
      <stop offset=".89" stop-color="#018bfd" stop-opacity=".08"/>
      <stop offset=".99" stop-color="#008afd" stop-opacity="0"/>
    </linearGradient>
    <linearGradient id="linear-gradient33" x1="206.96" y1="3.16" x2="206.96" y2="29.95" gradientTransform="translate(0 409.42) scale(1 -1)" gradientUnits="userSpaceOnUse">
      <stop offset="0" stop-color="#0fa3fe"/>
      <stop offset=".41" stop-color="#0c9ffd"/>
      <stop offset=".78" stop-color="#0694fd"/>
      <stop offset="1" stop-color="#008afd"/>
    </linearGradient>
    <linearGradient id="linear-gradient34" x1="206.96" y1="8.68" x2="206.96" y2="33.17" gradientTransform="translate(0 409.42) scale(1 -1)" gradientUnits="userSpaceOnUse">
      <stop offset="0" stop-color="#0fa3fe"/>
      <stop offset=".35" stop-color="#0999fd" stop-opacity=".6"/>
      <stop offset=".67" stop-color="#0490fd" stop-opacity=".28"/>
      <stop offset=".89" stop-color="#018bfd" stop-opacity=".08"/>
      <stop offset=".99" stop-color="#008afd" stop-opacity="0"/>
    </linearGradient>
    <linearGradient id="linear-gradient35" x1="217.28" y1="4" x2="217.28" y2="26.95" gradientTransform="translate(0 409.42) scale(1 -1)" gradientUnits="userSpaceOnUse">
      <stop offset="0" stop-color="#0fa3fe"/>
      <stop offset=".41" stop-color="#0c9ffd"/>
      <stop offset=".78" stop-color="#0694fd"/>
      <stop offset="1" stop-color="#008afd"/>
    </linearGradient>
    <linearGradient id="linear-gradient36" x1="217.28" y1="8.73" x2="217.28" y2="29.7" gradientTransform="translate(0 409.42) scale(1 -1)" gradientUnits="userSpaceOnUse">
      <stop offset="0" stop-color="#0fa3fe"/>
      <stop offset=".35" stop-color="#0999fd" stop-opacity=".6"/>
      <stop offset=".67" stop-color="#0490fd" stop-opacity=".28"/>
      <stop offset=".89" stop-color="#018bfd" stop-opacity=".08"/>
      <stop offset=".99" stop-color="#008afd" stop-opacity="0"/>
    </linearGradient>
    <linearGradient id="linear-gradient37" x1="227.6" y1="5.21" x2="227.6" y2="22.64" gradientTransform="translate(0 409.42) scale(1 -1)" gradientUnits="userSpaceOnUse">
      <stop offset="0" stop-color="#0fa3fe"/>
      <stop offset=".41" stop-color="#0c9ffd"/>
      <stop offset=".78" stop-color="#0694fd"/>
      <stop offset="1" stop-color="#008afd"/>
    </linearGradient>
    <linearGradient id="linear-gradient38" x1="227.6" y1="8.8" x2="227.6" y2="24.73" gradientTransform="translate(0 409.42) scale(1 -1)" gradientUnits="userSpaceOnUse">
      <stop offset="0" stop-color="#0fa3fe"/>
      <stop offset=".35" stop-color="#0999fd" stop-opacity=".6"/>
      <stop offset=".67" stop-color="#0490fd" stop-opacity=".28"/>
      <stop offset=".89" stop-color="#018bfd" stop-opacity=".08"/>
      <stop offset=".99" stop-color="#008afd" stop-opacity="0"/>
    </linearGradient>
    <linearGradient id="linear-gradient39" x1="237.9" y1="6.57" x2="237.9" y2="17.8" gradientTransform="translate(0 409.42) scale(1 -1)" gradientUnits="userSpaceOnUse">
      <stop offset="0" stop-color="#0fa3fe"/>
      <stop offset=".41" stop-color="#0c9ffd"/>
      <stop offset=".78" stop-color="#0694fd"/>
      <stop offset="1" stop-color="#008afd"/>
    </linearGradient>
    <linearGradient id="linear-gradient40" x1="237.9" y1="8.88" x2="237.9" y2="19.15" gradientTransform="translate(0 409.42) scale(1 -1)" gradientUnits="userSpaceOnUse">
      <stop offset="0" stop-color="#0fa3fe"/>
      <stop offset=".35" stop-color="#0999fd" stop-opacity=".6"/>
      <stop offset=".67" stop-color="#0490fd" stop-opacity=".28"/>
      <stop offset=".89" stop-color="#018bfd" stop-opacity=".08"/>
      <stop offset=".99" stop-color="#008afd" stop-opacity="0"/>
    </linearGradient>
    <linearGradient id="linear-gradient41" x1="248.23" y1="4.53" x2="248.23" y2="25.07" gradientTransform="translate(0 409.42) scale(1 -1)" gradientUnits="userSpaceOnUse">
      <stop offset="0" stop-color="#0fa3fe"/>
      <stop offset=".41" stop-color="#0c9ffd"/>
      <stop offset=".78" stop-color="#0694fd"/>
      <stop offset="1" stop-color="#008afd"/>
    </linearGradient>
    <linearGradient id="linear-gradient42" x1="248.23" y1="8.76" x2="248.23" y2="27.53" gradientTransform="translate(0 409.42) scale(1 -1)" gradientUnits="userSpaceOnUse">
      <stop offset="0" stop-color="#0fa3fe"/>
      <stop offset=".35" stop-color="#0999fd" stop-opacity=".6"/>
      <stop offset=".67" stop-color="#0490fd" stop-opacity=".28"/>
      <stop offset=".89" stop-color="#018bfd" stop-opacity=".08"/>
      <stop offset=".99" stop-color="#008afd" stop-opacity="0"/>
    </linearGradient>
  </defs>
  <g class="st37">
    <g id="Layer_1">
      <g>
        <circle class="st48" cx="258.64" cy="161.32" r="123.23" transform="translate(-38.32 230.14) rotate(-45)"/>
        <circle class="st36" cx="355.94" cy="71.85" r="30.99"/>
        <circle class="st5" cx="327.95" cy="71.85" r="30.99"/>
        <circle class="st4" cx="127.94" cy="170.8" r="94.3"/>
        <circle class="st7" cx="327.95" cy="267.66" r="121"/>
        <rect class="st0" x="63.88" y="281.71" width="162.27" height="66.3" rx="8.41" ry="8.41"/>
        <polygon class="st11" points="297.74 184.97 169.32 184.97 233.53 73.75 297.74 184.97"/>
        <polygon class="st8" points="371.29 312.38 95.76 312.38 135.19 244.09 331.87 244.09 371.29 312.38"/>
        <rect class="st48" x="123.25" y="294.61" width="12.7" height="1.45"/>
        <rect class="st48" x="123.25" y="298.21" width="18.98" height="1.45"/>
        <path class="st35" d="M385.37,288.39s4.87-38.01,4.56-42.01c-.31-3.99,0-99.23-3.07-101.08-3.07-1.84-12.29,3.38-15.05,10.45-2.76,7.07-4.61,45.47-4.61,45.47l3.69,47.93,14.48,39.24h0Z"/>
        <path class="st50" d="M340.88,188.53l-.25-11.04s-5.15-29.68-5.4-31.15-4.17-14.47-1.23-21.58,10.06-8.58,11.53-7.36c1.47,1.23,10.79,27.71,11.53,29.92s11.04,47.58,11.28,49.54,17.03,91.52,17.03,91.52l-23.4-9.85-21.09-90.01h0Z"/>
        <path class="st51" d="M315.86,185.35s-8.09-26.24-8.58-27.47-12.75-17.9-12.02-26.73c.74-8.83,4.91-13.24,6.62-13.24s23.3,28.69,24.03,30.17c.74,1.47,25.26,49.54,26,51.75.74,2.21,22.32,74.07,22.32,74.07l-58.37-88.54h0Z"/>
        <path class="st49" d="M321.48,184.55c-2.46-2.46-32.87-13.83-33.79-13.83s-28.27,9.53-30.41,11.98c-2.15,2.46-2.77,6.46,2.46,10.76,5.22,4.3,21.2,3.07,21.2,3.07,0,0,21.51,13.83,22.74,16.9,1.22,3.07,12.29,27.35,12.29,27.35-4,19.36-19.67,35.02-19.67,35.02,0,0-10.45-11.06-13.21-13.83-2.77-2.77-9.22-35.63-16.59-43.01-7.38-7.37-18.75-4.61-21.21-2.15-2.45,2.46-.61,8.3,2.15,17.21,2.77,8.91,8.92,36.86,9.22,40.24.31,3.38,13.52,28.27,13.52,28.27l22.13,39.94-16.92,66.66h83.78s8.72-50.7,9.64-52.85,3.07-10.44,5.84-19.36c1.17-3.79,3.29-13.15,5.35-22.66,2.76-12.8,5.4-25.87,5.4-25.87,0,0-61.44-101.38-63.9-103.84h-.02Z"/>
        <polygon class="st10" points="307.31 228.39 110.63 228.39 144.76 169.27 273.18 169.27 307.31 228.39"/>
        <rect class="st48" x="139.87" y="210.53" width="12.7" height="1.45"/>
        <rect class="st48" x="139.87" y="214.13" width="18.98" height="1.45"/>
        <rect class="st9" x=".01" y="112.8" width="119.3" height="77.67" rx="8.41" ry="8.41"/>
        <line class="st1" x1="21.61" y1="138.5" x2="21.61" y2="183.07"/>
        <line class="st1" x1="40.63" y1="138.5" x2="40.63" y2="183.07"/>
        <line class="st1" x1="59.65" y1="138.5" x2="59.65" y2="183.07"/>
        <line class="st1" x1="78.67" y1="138.5" x2="78.67" y2="183.07"/>
        <line class="st1" x1="97.7" y1="138.5" x2="97.7" y2="183.07"/>
        <path class="st3" d="M2.59,159.2c9.51,0,9.51,8.98,19.02,8.98s9.51-17.96,19.02-17.96,9.51,17.96,19.02,17.96,9.51-17.96,19.02-17.96,9.51,17.96,19.02,17.96,9.51-8.98,19.02-8.98"/>
        <circle class="st6" cx="78.67" cy="150.22" r="3.63"/>
        <path class="st25" d="M43.66,150.22c0,1.67-1.36,3.03-3.03,3.03s-3.03-1.36-3.03-3.03,1.36-3.03,3.03-3.03,3.03,1.36,3.03,3.03Z"/>
        <path class="st24" d="M111.79,112.79H7.51c-4.15,0-7.51,3.36-7.51,7.51v5.5h119.3v-5.5c0-4.15-3.36-7.51-7.51-7.51h0Z"/>
        <circle class="st21" cx="299.96" cy="71.85" r="30.99"/>
        <path class="st20" d="M283.48,45.61c-8.71,5.49-14.51,15.18-14.51,26.24,0,5.24,1.3,10.17,3.6,14.49,11.74-6.18,27.4-14.49,27.4-14.49l-16.49-26.24Z"/>
        <path class="st27" d="M271.79,58.96c-1.8,3.93-2.82,8.29-2.82,12.89,0,5.24,1.3,10.17,3.6,14.49,11.74-6.18,27.4-14.49,27.4-14.49l-28.18-12.89Z"/>
        <rect class="st2" x="392.25" y="107.27" width="52.61" height="19.57"/>
        <line class="st2" x1="371.15" y1="86.35" x2="392.25" y2="107.27"/>
        <path class="st22" d="M374,86.35c0,1.57-1.27,2.85-2.85,2.85s-2.85-1.27-2.85-2.85,1.27-2.85,2.85-2.85,2.85,1.27,2.85,2.85Z"/>
        <rect class="st23" x="396.07" y="111.68" width="40.21" height="3.94"/>
        <rect class="st26" x="396.07" y="118.42" width="25.5" height="3.94"/>
        <rect class="st2" x="198.01" y=".4" width="62.02" height="26.6"/>
        <polyline class="st2" points="141.25 106.08 184.84 13.66 198.01 13.66"/>
        <path class="st19" d="M145.28,106.08c0,2.22-1.8,4.03-4.03,4.03s-4.03-1.8-4.03-4.03,1.8-4.03,4.03-4.03,4.03,1.8,4.03,4.03Z"/>
        <rect class="st28" x="202.29" y="4.95" width="50.69" height="3.94"/>
        <rect class="st33" x="202.29" y="18.42" width="43.57" height="3.94"/>
        <rect class="st32" x="202.29" y="11.69" width="32.36" height="3.94"/>
        <rect class="st30" x="143.66" y="360.88" width="116.28" height="48.25" rx="8.41" ry="8.41"/>
        <rect class="st29" x="151.81" y="385.1" width="7.15" height="15.28"/>
        <rect class="st39" x="151.81" y="385.1" width="7.15" height="15.28"/>
        <rect class="st31" x="162.12" y="373.23" width="7.15" height="27.15"/>
        <rect class="st40" x="162.12" y="373.23" width="7.15" height="27.15"/>
        <rect class="st34" x="172.44" y="378.57" width="7.15" height="21.81"/>
        <rect class="st38" x="172.44" y="378.57" width="7.15" height="21.81"/>
        <rect class="st18" x="182.75" y="386.73" width="7.15" height="13.65"/>
        <rect class="st41" x="182.75" y="386.73" width="7.15" height="13.65"/>
        <rect class="st12" x="193.07" y="380.8" width="7.15" height="19.59"/>
        <rect class="st42" x="193.07" y="380.8" width="7.15" height="19.59"/>
        <rect class="st16" x="203.39" y="375.6" width="7.15" height="24.78"/>
        <rect class="st44" x="203.39" y="375.6" width="7.15" height="24.78"/>
        <rect class="st15" x="213.71" y="379.16" width="7.15" height="21.22"/>
        <rect class="st45" x="213.71" y="379.16" width="7.15" height="21.22"/>
        <rect class="st14" x="224.02" y="384.26" width="7.15" height="16.12"/>
        <rect class="st43" x="224.02" y="384.26" width="7.15" height="16.12"/>
        <rect class="st13" x="234.33" y="389.99" width="7.15" height="10.39"/>
        <rect class="st47" x="234.33" y="389.99" width="7.15" height="10.39"/>
        <rect class="st17" x="244.65" y="381.39" width="7.15" height="18.99"/>
        <rect class="st46" x="244.65" y="381.39" width="7.15" height="18.99"/>
        <path class="st49" d="M256.65,274.25c-.3-3.38-6.45-31.33-9.22-40.24-2.76-8.91-4.6-14.75-2.15-17.21,2.46-2.46,13.83-5.22,21.21,2.15,7.37,7.38,13.82,40.24,16.59,43.01l-26.43,12.29h0Z"/>
      </g>
    </g>
  </g>
</svg>