<?xml version="1.0" encoding="UTF-8"?>
<svg id="Layer_1" xmlns="http://www.w3.org/2000/svg" xmlns:xlink="http://www.w3.org/1999/xlink" version="1.1" viewBox="0 0 399.42 364.03">
  <!-- Generator: Adobe Illustrator 30.6.0, SVG Export Plug-In . SVG Version: 2.1.4 Build 109)  -->
  <defs>
    <style>
      .st0 {
        stroke: url(#linear-gradient4);
      }

      .st0, .st1 {
        stroke-width: .53px;
      }

      .st0, .st1, .st2, .st3 {
        fill: none;
        stroke-miterlimit: 10;
      }

      .st4 {
        fill: url(#linear-gradient2);
      }

      .st5 {
        fill: url(#linear-gradient1);
      }

      .st6 {
        fill: url(#linear-gradient9);
      }

      .st7 {
        fill: url(#linear-gradient3);
      }

      .st8 {
        fill: url(#linear-gradient6);
      }

      .st9 {
        fill: url(#linear-gradient8);
      }

      .st10 {
        fill: url(#linear-gradient7);
      }

      .st11 {
        fill: url(#linear-gradient5);
      }

      .st12 {
        fill: url(#linear-gradient31);
      }

      .st13 {
        fill: url(#linear-gradient39);
      }

      .st14 {
        fill: url(#linear-gradient37);
      }

      .st15 {
        fill: url(#linear-gradient35);
      }

      .st16 {
        fill: url(#linear-gradient33);
      }

      .st17 {
        fill: url(#linear-gradient41);
      }

      .st18 {
        fill: url(#linear-gradient29);
      }

      .st19 {
        fill: url(#linear-gradient18);
      }

      .st20 {
        fill: url(#linear-gradient13);
      }

      .st21 {
        fill: url(#linear-gradient12);
      }

      .st22 {
        fill: url(#linear-gradient15);
      }

      .st23 {
        fill: url(#linear-gradient16);
      }

      .st24 {
        fill: url(#linear-gradient11);
      }

      .st25 {
        fill: url(#linear-gradient10);
      }

      .st26 {
        fill: url(#linear-gradient17);
      }

      .st27 {
        fill: url(#linear-gradient14);
      }

      .st28 {
        fill: url(#linear-gradient19);
      }

      .st29 {
        fill: url(#linear-gradient23);
      }

      .st30 {
        fill: url(#linear-gradient22);
      }

      .st31 {
        fill: url(#linear-gradient25);
      }

      .st32 {
        fill: url(#linear-gradient21);
      }

      .st33 {
        fill: url(#linear-gradient20);
      }

      .st34 {
        fill: url(#linear-gradient27);
      }

      .st35 {
        fill: url(#radial-gradient);
      }

      .st36 {
        fill: url(#linear-gradient);
      }

      .st1 {
        stroke: #0082f5;
      }

      .st37, .st38, .st39, .st40, .st41, .st42, .st43, .st44, .st45, .st46, .st47 {
        isolation: isolate;
      }

      .st38 {
        fill: url(#linear-gradient28);
      }

      .st38, .st39, .st40, .st41, .st42, .st43, .st44, .st45, .st46, .st47 {
        mix-blend-mode: multiply;
      }

      .st39 {
        fill: url(#linear-gradient24);
      }

      .st40 {
        fill: url(#linear-gradient26);
      }

      .st41 {
        fill: url(#linear-gradient30);
      }

      .st42 {
        fill: url(#linear-gradient32);
      }

      .st43 {
        fill: url(#linear-gradient38);
      }

      .st44 {
        fill: url(#linear-gradient34);
      }

      .st45 {
        fill: url(#linear-gradient36);
      }

      .st46 {
        fill: url(#linear-gradient42);
      }

      .st47 {
        fill: url(#linear-gradient40);
      }

      .st48 {
        fill: #00387c;
      }

      .st49 {
        fill: #fff;
      }

      .st50 {
        fill: url(#radial-gradient1);
      }

      .st51 {
        fill: url(#radial-gradient2);
      }

      .st2 {
        stroke: #17b2ff;
        stroke-width: .79px;
      }

      .st3 {
        stroke: #00387c;
        stroke-width: 1.05px;
      }
    </style>
    <linearGradient id="linear-gradient" x1="311.66" y1="475.25" x2="325.5" y2="533.82" gradientTransform="translate(0 -432.47)" gradientUnits="userSpaceOnUse">
      <stop offset="0" stop-color="#fff"/>
      <stop offset=".09" stop-color="#f8fbfd"/>
      <stop offset=".22" stop-color="#e7f2f7"/>
      <stop offset=".36" stop-color="#cbe3ee"/>
      <stop offset=".52" stop-color="#a3cde1"/>
      <stop offset=".69" stop-color="#70b2d1"/>
      <stop offset=".86" stop-color="#3291bd"/>
      <stop offset=".99" stop-color="#0076ad"/>
    </linearGradient>
    <linearGradient id="linear-gradient1" x1="284.9" y1="472.66" x2="300.69" y2="527.32" gradientTransform="translate(0 -432.47)" gradientUnits="userSpaceOnUse">
      <stop offset="0" stop-color="#67d2ff"/>
      <stop offset="1" stop-color="#0082f5"/>
    </linearGradient>
    <linearGradient id="linear-gradient2" x1="100.92" y1="524.17" x2="130.97" y2="664.58" gradientTransform="translate(0 -432.47)" gradientUnits="userSpaceOnUse">
      <stop offset="0" stop-color="#67d2ff"/>
      <stop offset="1" stop-color="#0082f5"/>
    </linearGradient>
    <linearGradient id="linear-gradient3" x1="327.28" y1="782.2" x2="273.69" y2="613.85" gradientTransform="translate(0 -432.47)" gradientUnits="userSpaceOnUse">
      <stop offset="0" stop-color="#0fa3fe"/>
      <stop offset=".41" stop-color="#0c9ffd"/>
      <stop offset=".78" stop-color="#0694fd"/>
      <stop offset="1" stop-color="#008afd"/>
    </linearGradient>
    <linearGradient id="linear-gradient4" x1="128.67" y1="682.16" x2="129.36" y2="743.1" gradientTransform="translate(0 -432.47)" gradientUnits="userSpaceOnUse">
      <stop offset=".53" stop-color="#a7e2fb"/>
      <stop offset=".65" stop-color="#a3e0fb"/>
      <stop offset=".75" stop-color="#98dcfb"/>
      <stop offset=".84" stop-color="#86d6fc"/>
      <stop offset=".93" stop-color="#6dcdfd"/>
      <stop offset="1" stop-color="#55c5ff"/>
    </linearGradient>
    <linearGradient id="linear-gradient5" x1="184.04" y1="513.54" x2="211.11" y2="608.85" gradientTransform="translate(0 -432.47)" gradientUnits="userSpaceOnUse">
      <stop offset="0" stop-color="#fff"/>
      <stop offset=".23" stop-color="#fcfdfe"/>
      <stop offset=".36" stop-color="#f4f9fb"/>
      <stop offset=".46" stop-color="#e6f1f7"/>
      <stop offset=".55" stop-color="#d3e7f0"/>
      <stop offset=".63" stop-color="#b9d9e8"/>
      <stop offset=".71" stop-color="#9ac9de"/>
      <stop offset=".78" stop-color="#75b5d2"/>
      <stop offset=".84" stop-color="#4a9dc4"/>
      <stop offset=".9" stop-color="#1a84b5"/>
      <stop offset=".94" stop-color="#0076ad"/>
    </linearGradient>
    <linearGradient id="linear-gradient6" x1="196.44" y1="644.88" x2="206.81" y2="704.91" gradientTransform="translate(0 -432.47)" gradientUnits="userSpaceOnUse">
      <stop offset="0" stop-color="#67d2ff"/>
      <stop offset="1" stop-color="#0082f5"/>
    </linearGradient>
    <radialGradient id="radial-gradient" cx="329.28" cy="358.76" fx="329.28" fy="358.76" r="19.07" gradientTransform="translate(4.7512 -788.0125) rotate(.4828) scale(1 2.6905)" gradientUnits="userSpaceOnUse">
      <stop offset="0" stop-color="#83e5ff"/>
      <stop offset="0" stop-color="#84e5ff"/>
      <stop offset=".34" stop-color="#b8f0ff"/>
      <stop offset=".63" stop-color="#def8ff"/>
      <stop offset=".86" stop-color="#f6fdff"/>
      <stop offset="1" stop-color="#fff"/>
    </radialGradient>
    <radialGradient id="radial-gradient1" cx="198.04" cy="417.56" fx="198.04" fy="417.56" r="24.25" gradientTransform="translate(-84.59 -540.12) rotate(-14.54) scale(1 1.87)" gradientUnits="userSpaceOnUse">
      <stop offset="0" stop-color="#83e5ff"/>
      <stop offset="1" stop-color="#fff"/>
    </radialGradient>
    <radialGradient id="radial-gradient2" cx="96.22" cy="417.35" fx="96.22" fy="417.35" r="25.08" gradientTransform="translate(-139.13 -498.83) rotate(-24.93) scale(1 1.87)" gradientUnits="userSpaceOnUse">
      <stop offset="0" stop-color="#83e5ff"/>
      <stop offset="1" stop-color="#fff"/>
    </radialGradient>
    <linearGradient id="linear-gradient7" x1="177.44" y1="587.76" x2="187.01" y2="641.9" gradientTransform="translate(0 -432.47)" gradientUnits="userSpaceOnUse">
      <stop offset="0" stop-color="#afe6ff"/>
      <stop offset=".35" stop-color="#a1daff"/>
      <stop offset="1" stop-color="#7ebbff"/>
      <stop offset="1" stop-color="#7ebbff"/>
    </linearGradient>
    <linearGradient id="linear-gradient8" x1="-222.63" y1="530.77" x2="-123.91" y2="615.39" gradientTransform="translate(-126.8 -432.47) scale(-1 1)" gradientUnits="userSpaceOnUse">
      <stop offset=".34" stop-color="#fff"/>
      <stop offset=".45" stop-color="#fbfdff"/>
      <stop offset=".56" stop-color="#f0faff"/>
      <stop offset=".65" stop-color="#def3ff"/>
      <stop offset=".75" stop-color="#c5ebff"/>
      <stop offset=".84" stop-color="#a4e0ff"/>
      <stop offset=".92" stop-color="#7dd2ff"/>
      <stop offset="1" stop-color="#55c5ff"/>
    </linearGradient>
    <linearGradient id="linear-gradient9" x1="69.99" y1="562.9" x2="69.99" y2="567.7" gradientTransform="translate(0 -432.47)" gradientUnits="userSpaceOnUse">
      <stop offset="0" stop-color="#afe6ff"/>
      <stop offset=".31" stop-color="#abe2ff"/>
      <stop offset=".57" stop-color="#a0d9ff"/>
      <stop offset=".83" stop-color="#8ec9ff"/>
      <stop offset="1" stop-color="#7ebbff"/>
    </linearGradient>
    <linearGradient id="linear-gradient10" x1="36.09" y1="563.33" x2="36.17" y2="567.56" gradientTransform="translate(0 -432.47)" gradientUnits="userSpaceOnUse">
      <stop offset="0" stop-color="#afe6ff"/>
      <stop offset=".31" stop-color="#abe2ff"/>
      <stop offset=".57" stop-color="#a0d9ff"/>
      <stop offset=".83" stop-color="#8ec9ff"/>
      <stop offset="1" stop-color="#7ebbff"/>
    </linearGradient>
    <linearGradient id="linear-gradient11" x1="57.85" y1="532.18" x2="37.38" y2="570.54" gradientTransform="translate(0 -432.47)" gradientUnits="userSpaceOnUse">
      <stop offset="0" stop-color="#fff"/>
      <stop offset=".09" stop-color="#f8fbfd"/>
      <stop offset=".22" stop-color="#e7f2f7"/>
      <stop offset=".36" stop-color="#cbe3ee"/>
      <stop offset=".52" stop-color="#a3cde1"/>
      <stop offset=".69" stop-color="#70b2d1"/>
      <stop offset=".86" stop-color="#3291bd"/>
      <stop offset=".99" stop-color="#0076ad"/>
    </linearGradient>
    <linearGradient id="linear-gradient12" x1="275.96" y1="525.02" x2="262.24" y2="481.89" gradientTransform="translate(0 -432.47)" gradientUnits="userSpaceOnUse">
      <stop offset="0" stop-color="#0fa3fe"/>
      <stop offset=".41" stop-color="#0c9ffd"/>
      <stop offset=".78" stop-color="#0694fd"/>
      <stop offset="1" stop-color="#008afd"/>
    </linearGradient>
    <linearGradient id="linear-gradient13" x1="257.71" y1="475.39" x2="254.15" y2="490.33" gradientTransform="translate(0 -432.47)" gradientUnits="userSpaceOnUse">
      <stop offset="0" stop-color="#afe6ff"/>
      <stop offset=".31" stop-color="#abe2ff"/>
      <stop offset=".57" stop-color="#a0d9ff"/>
      <stop offset=".83" stop-color="#8ec9ff"/>
      <stop offset="1" stop-color="#7ebbff"/>
    </linearGradient>
    <linearGradient id="linear-gradient14" x1="253.26" y1="483.75" x2="252.92" y2="507.95" gradientTransform="translate(0 -432.47)" gradientUnits="userSpaceOnUse">
      <stop offset=".37" stop-color="#fff"/>
      <stop offset=".48" stop-color="#fbfdff"/>
      <stop offset=".58" stop-color="#f0faff"/>
      <stop offset=".67" stop-color="#def3ff"/>
      <stop offset=".76" stop-color="#c5ebff"/>
      <stop offset=".85" stop-color="#a4e0ff"/>
      <stop offset=".93" stop-color="#7dd2ff"/>
      <stop offset="1" stop-color="#55c5ff"/>
    </linearGradient>
    <linearGradient id="linear-gradient15" x1="327.67" y1="509.33" x2="332.74" y2="509.33" gradientTransform="translate(0 -432.47)" gradientUnits="userSpaceOnUse">
      <stop offset="0" stop-color="#67d2ff"/>
      <stop offset="1" stop-color="#0082f5"/>
    </linearGradient>
    <linearGradient id="linear-gradient16" x1="352.37" y1="533.62" x2="388.14" y2="533.62" gradientTransform="translate(0 -432.47)" gradientUnits="userSpaceOnUse">
      <stop offset="0" stop-color="#67d2ff"/>
      <stop offset="1" stop-color="#0082f5"/>
    </linearGradient>
    <linearGradient id="linear-gradient17" x1="352.37" y1="539.62" x2="375.06" y2="539.62" gradientTransform="translate(0 -432.47)" gradientUnits="userSpaceOnUse">
      <stop offset="0" stop-color="#67d2ff"/>
      <stop offset="1" stop-color="#0082f5"/>
    </linearGradient>
    <linearGradient id="linear-gradient18" x1="122.09" y1="526.88" x2="129.25" y2="526.88" gradientTransform="translate(0 -432.47)" gradientUnits="userSpaceOnUse">
      <stop offset="0" stop-color="#67d2ff"/>
      <stop offset="1" stop-color="#0082f5"/>
    </linearGradient>
    <linearGradient id="linear-gradient19" x1="179.97" y1="438.67" x2="225.07" y2="438.67" gradientTransform="translate(0 -432.47)" gradientUnits="userSpaceOnUse">
      <stop offset="0" stop-color="#67d2ff"/>
      <stop offset="1" stop-color="#0082f5"/>
    </linearGradient>
    <linearGradient id="linear-gradient20" x1="179.97" y1="450.65" x2="218.73" y2="450.65" gradientTransform="translate(0 -432.47)" gradientUnits="userSpaceOnUse">
      <stop offset="0" stop-color="#67d2ff"/>
      <stop offset="1" stop-color="#0082f5"/>
    </linearGradient>
    <linearGradient id="linear-gradient21" x1="179.97" y1="444.66" x2="208.76" y2="444.66" gradientTransform="translate(0 -432.47)" gradientUnits="userSpaceOnUse">
      <stop offset="0" stop-color="#67d2ff"/>
      <stop offset="1" stop-color="#0082f5"/>
    </linearGradient>
    <linearGradient id="linear-gradient22" x1="179.83" y1="787.36" x2="178.76" y2="742.27" gradientTransform="translate(0 -432.47)" gradientUnits="userSpaceOnUse">
      <stop offset="0" stop-color="#fff"/>
      <stop offset="1" stop-color="#7ebbff"/>
    </linearGradient>
    <linearGradient id="linear-gradient23" x1="138.24" y1="791.94" x2="138.24" y2="777.25" gradientTransform="translate(0 -432.47)" gradientUnits="userSpaceOnUse">
      <stop offset="0" stop-color="#0fa3fe"/>
      <stop offset=".41" stop-color="#0c9ffd"/>
      <stop offset=".78" stop-color="#0694fd"/>
      <stop offset="1" stop-color="#008afd"/>
    </linearGradient>
    <linearGradient id="linear-gradient24" x1="138.24" y1="788.92" x2="138.24" y2="775.48" gradientTransform="translate(0 -432.47)" gradientUnits="userSpaceOnUse">
      <stop offset="0" stop-color="#0fa3fe"/>
      <stop offset=".35" stop-color="#0999fd" stop-opacity=".6"/>
      <stop offset=".67" stop-color="#0490fd" stop-opacity=".28"/>
      <stop offset=".89" stop-color="#018bfd" stop-opacity=".08"/>
      <stop offset=".99" stop-color="#008afd" stop-opacity="0"/>
    </linearGradient>
    <linearGradient id="linear-gradient25" x1="147.41" y1="794.44" x2="147.41" y2="768.32" gradientTransform="translate(0 -432.47)" gradientUnits="userSpaceOnUse">
      <stop offset="0" stop-color="#0fa3fe"/>
      <stop offset=".41" stop-color="#0c9ffd"/>
      <stop offset=".78" stop-color="#0694fd"/>
      <stop offset="1" stop-color="#008afd"/>
    </linearGradient>
    <linearGradient id="linear-gradient26" x1="147.41" y1="789.07" x2="147.41" y2="765.19" gradientTransform="translate(0 -432.47)" gradientUnits="userSpaceOnUse">
      <stop offset="0" stop-color="#0fa3fe"/>
      <stop offset=".35" stop-color="#0999fd" stop-opacity=".6"/>
      <stop offset=".67" stop-color="#0490fd" stop-opacity=".28"/>
      <stop offset=".89" stop-color="#018bfd" stop-opacity=".08"/>
      <stop offset=".99" stop-color="#008afd" stop-opacity="0"/>
    </linearGradient>
    <linearGradient id="linear-gradient27" x1="156.59" y1="793.32" x2="156.59" y2="772.33" gradientTransform="translate(0 -432.47)" gradientUnits="userSpaceOnUse">
      <stop offset="0" stop-color="#0fa3fe"/>
      <stop offset=".41" stop-color="#0c9ffd"/>
      <stop offset=".78" stop-color="#0694fd"/>
      <stop offset="1" stop-color="#008afd"/>
    </linearGradient>
    <linearGradient id="linear-gradient28" x1="156.59" y1="789" x2="156.59" y2="769.82" gradientTransform="translate(0 -432.47)" gradientUnits="userSpaceOnUse">
      <stop offset="0" stop-color="#0fa3fe"/>
      <stop offset=".35" stop-color="#0999fd" stop-opacity=".6"/>
      <stop offset=".67" stop-color="#0490fd" stop-opacity=".28"/>
      <stop offset=".89" stop-color="#018bfd" stop-opacity=".08"/>
      <stop offset=".99" stop-color="#008afd" stop-opacity="0"/>
    </linearGradient>
    <linearGradient id="linear-gradient29" x1="165.77" y1="791.6" x2="165.77" y2="778.46" gradientTransform="translate(0 -432.47)" gradientUnits="userSpaceOnUse">
      <stop offset="0" stop-color="#0fa3fe"/>
      <stop offset=".41" stop-color="#0c9ffd"/>
      <stop offset=".78" stop-color="#0694fd"/>
      <stop offset="1" stop-color="#008afd"/>
    </linearGradient>
    <linearGradient id="linear-gradient30" x1="165.77" y1="788.9" x2="165.77" y2="776.89" gradientTransform="translate(0 -432.47)" gradientUnits="userSpaceOnUse">
      <stop offset="0" stop-color="#0fa3fe"/>
      <stop offset=".35" stop-color="#0999fd" stop-opacity=".6"/>
      <stop offset=".67" stop-color="#0490fd" stop-opacity=".28"/>
      <stop offset=".89" stop-color="#018bfd" stop-opacity=".08"/>
      <stop offset=".99" stop-color="#008afd" stop-opacity="0"/>
    </linearGradient>
    <linearGradient id="linear-gradient31" x1="174.95" y1="792.85" x2="174.95" y2="774.01" gradientTransform="translate(0 -432.47)" gradientUnits="userSpaceOnUse">
      <stop offset="0" stop-color="#0fa3fe"/>
      <stop offset=".41" stop-color="#0c9ffd"/>
      <stop offset=".78" stop-color="#0694fd"/>
      <stop offset="1" stop-color="#008afd"/>
    </linearGradient>
    <linearGradient id="linear-gradient32" x1="174.95" y1="788.97" x2="174.95" y2="771.75" gradientTransform="translate(0 -432.47)" gradientUnits="userSpaceOnUse">
      <stop offset="0" stop-color="#0fa3fe"/>
      <stop offset=".35" stop-color="#0999fd" stop-opacity=".6"/>
      <stop offset=".67" stop-color="#0490fd" stop-opacity=".28"/>
      <stop offset=".89" stop-color="#018bfd" stop-opacity=".08"/>
      <stop offset=".99" stop-color="#008afd" stop-opacity="0"/>
    </linearGradient>
    <linearGradient id="linear-gradient33" x1="184.13" y1="793.94" x2="184.13" y2="770.11" gradientTransform="translate(0 -432.47)" gradientUnits="userSpaceOnUse">
      <stop offset="0" stop-color="#0fa3fe"/>
      <stop offset=".41" stop-color="#0c9ffd"/>
      <stop offset=".78" stop-color="#0694fd"/>
      <stop offset="1" stop-color="#008afd"/>
    </linearGradient>
    <linearGradient id="linear-gradient34" x1="184.13" y1="789.03" x2="184.13" y2="767.25" gradientTransform="translate(0 -432.47)" gradientUnits="userSpaceOnUse">
      <stop offset="0" stop-color="#0fa3fe"/>
      <stop offset=".35" stop-color="#0999fd" stop-opacity=".6"/>
      <stop offset=".67" stop-color="#0490fd" stop-opacity=".28"/>
      <stop offset=".89" stop-color="#018bfd" stop-opacity=".08"/>
      <stop offset=".99" stop-color="#008afd" stop-opacity="0"/>
    </linearGradient>
    <linearGradient id="linear-gradient35" x1="193.31" y1="793.2" x2="193.31" y2="772.78" gradientTransform="translate(0 -432.47)" gradientUnits="userSpaceOnUse">
      <stop offset="0" stop-color="#0fa3fe"/>
      <stop offset=".41" stop-color="#0c9ffd"/>
      <stop offset=".78" stop-color="#0694fd"/>
      <stop offset="1" stop-color="#008afd"/>
    </linearGradient>
    <linearGradient id="linear-gradient36" x1="193.31" y1="788.99" x2="193.31" y2="770.33" gradientTransform="translate(0 -432.47)" gradientUnits="userSpaceOnUse">
      <stop offset="0" stop-color="#0fa3fe"/>
      <stop offset=".35" stop-color="#0999fd" stop-opacity=".6"/>
      <stop offset=".67" stop-color="#0490fd" stop-opacity=".28"/>
      <stop offset=".89" stop-color="#018bfd" stop-opacity=".08"/>
      <stop offset=".99" stop-color="#008afd" stop-opacity="0"/>
    </linearGradient>
    <linearGradient id="linear-gradient37" x1="202.48" y1="792.12" x2="202.48" y2="776.61" gradientTransform="translate(0 -432.47)" gradientUnits="userSpaceOnUse">
      <stop offset="0" stop-color="#0fa3fe"/>
      <stop offset=".41" stop-color="#0c9ffd"/>
      <stop offset=".78" stop-color="#0694fd"/>
      <stop offset="1" stop-color="#008afd"/>
    </linearGradient>
    <linearGradient id="linear-gradient38" x1="202.48" y1="788.93" x2="202.48" y2="774.75" gradientTransform="translate(0 -432.47)" gradientUnits="userSpaceOnUse">
      <stop offset="0" stop-color="#0fa3fe"/>
      <stop offset=".35" stop-color="#0999fd" stop-opacity=".6"/>
      <stop offset=".67" stop-color="#0490fd" stop-opacity=".28"/>
      <stop offset=".89" stop-color="#018bfd" stop-opacity=".08"/>
      <stop offset=".99" stop-color="#008afd" stop-opacity="0"/>
    </linearGradient>
    <linearGradient id="linear-gradient39" x1="211.66" y1="790.91" x2="211.66" y2="780.92" gradientTransform="translate(0 -432.47)" gradientUnits="userSpaceOnUse">
      <stop offset="0" stop-color="#0fa3fe"/>
      <stop offset=".41" stop-color="#0c9ffd"/>
      <stop offset=".78" stop-color="#0694fd"/>
      <stop offset="1" stop-color="#008afd"/>
    </linearGradient>
    <linearGradient id="linear-gradient40" x1="211.66" y1="788.86" x2="211.66" y2="779.72" gradientTransform="translate(0 -432.47)" gradientUnits="userSpaceOnUse">
      <stop offset="0" stop-color="#0fa3fe"/>
      <stop offset=".35" stop-color="#0999fd" stop-opacity=".6"/>
      <stop offset=".67" stop-color="#0490fd" stop-opacity=".28"/>
      <stop offset=".89" stop-color="#018bfd" stop-opacity=".08"/>
      <stop offset=".99" stop-color="#008afd" stop-opacity="0"/>
    </linearGradient>
    <linearGradient id="linear-gradient41" x1="220.84" y1="792.73" x2="220.84" y2="774.45" gradientTransform="translate(0 -432.47)" gradientUnits="userSpaceOnUse">
      <stop offset="0" stop-color="#0fa3fe"/>
      <stop offset=".41" stop-color="#0c9ffd"/>
      <stop offset=".78" stop-color="#0694fd"/>
      <stop offset="1" stop-color="#008afd"/>
    </linearGradient>
    <linearGradient id="linear-gradient42" x1="220.84" y1="788.96" x2="220.84" y2="772.26" gradientTransform="translate(0 -432.47)" gradientUnits="userSpaceOnUse">
      <stop offset="0" stop-color="#0fa3fe"/>
      <stop offset=".35" stop-color="#0999fd" stop-opacity=".6"/>
      <stop offset=".67" stop-color="#0490fd" stop-opacity=".28"/>
      <stop offset=".89" stop-color="#018bfd" stop-opacity=".08"/>
      <stop offset=".99" stop-color="#008afd" stop-opacity="0"/>
    </linearGradient>
  </defs>
  <g class="st37">
    <g id="Layer_11" data-name="Layer_1">
      <g>
        <circle class="st48" cx="230.1" cy="143.56" r="109.63"/>
        <circle class="st36" cx="316.67" cy="63.96" r="27.57"/>
        <circle class="st5" cx="291.77" cy="63.96" r="27.57"/>
        <circle class="st4" cx="113.82" cy="151.99" r="83.9"/>
        <circle class="st7" cx="291.77" cy="238.17" r="107.65"/>
        <rect class="st0" x="56.83" y="250.67" width="144.37" height="58.98" rx="8.41" ry="8.41"/>
        <polygon class="st11" points="264.89 164.6 150.64 164.6 207.76 65.65 264.89 164.6"/>
        <polygon class="st8" points="330.32 277.95 85.19 277.95 120.27 217.2 295.25 217.2 330.32 277.95"/>
        <rect class="st48" x="109.65" y="262.14" width="11.3" height="1.29"/>
        <rect class="st48" x="109.65" y="265.35" width="16.89" height="1.29"/>
        <path class="st35" d="M342.85,256.61s4.33-33.82,4.06-37.37c-.28-3.55,0-88.28-2.73-89.93-2.73-1.64-10.93,3.01-13.39,9.3-2.46,6.29-4.1,40.45-4.1,40.45l3.28,42.64,12.88,34.91h0Z"/>
        <path class="st50" d="M303.27,167.77l-.22-9.82s-4.58-26.41-4.8-27.71-3.71-12.87-1.09-19.2,8.95-7.63,10.26-6.55c1.31,1.09,9.6,24.65,10.26,26.62s9.82,42.33,10.04,44.07,15.15,81.42,15.15,81.42l-20.82-8.76-18.76-80.08h0Z"/>
        <path class="st51" d="M281.01,164.94s-7.2-23.34-7.63-24.44-11.34-15.93-10.69-23.78c.66-7.86,4.37-11.78,5.89-11.78s20.73,25.52,21.38,26.84c.66,1.31,22.47,44.07,23.13,46.04.66,1.97,19.86,65.9,19.86,65.9l-51.93-78.77h0Z"/>
        <path class="st49" d="M286.01,164.23c-2.19-2.19-29.24-12.3-30.06-12.3s-25.15,8.48-27.05,10.66c-1.91,2.19-2.46,5.75,2.19,9.57,4.64,3.83,18.86,2.73,18.86,2.73,0,0,19.14,12.3,20.23,15.04,1.09,2.73,10.93,24.33,10.93,24.33-3.56,17.22-17.5,31.16-17.5,31.16,0,0-9.3-9.84-11.75-12.3-2.46-2.46-8.2-31.7-14.76-38.26-6.57-6.56-16.68-4.1-18.87-1.91-2.18,2.19-.54,7.38,1.91,15.31,2.46,7.93,7.94,32.79,8.2,35.8.28,3.01,12.03,25.15,12.03,25.15l19.69,35.53-15.05,59.31h74.54s7.76-45.11,8.58-47.02,2.73-9.29,5.2-17.22c1.04-3.37,2.93-11.7,4.76-20.16,2.46-11.39,4.8-23.02,4.8-23.02,0,0-54.66-90.19-56.85-92.38h-.02Z"/>
        <polygon class="st10" points="273.4 203.23 98.42 203.23 128.79 150.63 243.04 150.63 273.4 203.23"/>
        <rect class="st48" x="124.44" y="187.34" width="11.3" height="1.29"/>
        <rect class="st48" x="124.44" y="190.54" width="16.89" height="1.29"/>
        <rect class="st9" x="0" y="100.39" width="106.14" height="69.1" rx="8.41" ry="8.41"/>
        <line class="st1" x1="19.23" y1="123.26" x2="19.23" y2="162.91"/>
        <line class="st1" x1="36.15" y1="123.26" x2="36.15" y2="162.91"/>
        <line class="st1" x1="53.07" y1="123.26" x2="53.07" y2="162.91"/>
        <line class="st1" x1="69.99" y1="123.26" x2="69.99" y2="162.91"/>
        <line class="st1" x1="86.92" y1="123.26" x2="86.92" y2="162.91"/>
        <path class="st3" d="M2.3,141.67c8.46,0,8.46,7.99,16.92,7.99s8.46-15.98,16.92-15.98,8.46,15.98,16.92,15.98,8.46-15.98,16.92-15.98,8.46,15.98,16.92,15.98,8.46-7.99,16.92-7.99"/>
        <circle class="st6" cx="69.99" cy="133.68" r="3.23"/>
        <path class="st25" d="M38.84,133.68c0,1.49-1.21,2.7-2.7,2.7s-2.7-1.21-2.7-2.7,1.21-2.7,2.7-2.7,2.7,1.21,2.7,2.7Z"/>
        <path class="st24" d="M99.46,100.38H6.68c-3.69,0-6.68,2.99-6.68,6.68v4.89h106.14v-4.89c0-3.69-2.99-6.68-6.68-6.68h0Z"/>
        <circle class="st21" cx="266.86" cy="63.96" r="27.57"/>
        <path class="st20" d="M252.2,40.62c-7.75,4.88-12.91,13.51-12.91,23.34,0,4.66,1.16,9.05,3.2,12.89,10.44-5.5,24.38-12.89,24.38-12.89l-14.67-23.34Z"/>
        <path class="st27" d="M241.8,52.49c-1.6,3.5-2.51,7.38-2.51,11.47,0,4.66,1.16,9.05,3.2,12.89,10.44-5.5,24.38-12.89,24.38-12.89l-25.07-11.47Z"/>
        <rect class="st2" x="348.97" y="95.47" width="46.81" height="17.41"/>
        <line class="st2" x1="330.2" y1="76.86" x2="348.97" y2="95.47"/>
        <path class="st22" d="M332.74,76.86c0,1.4-1.13,2.54-2.54,2.54s-2.54-1.13-2.54-2.54,1.13-2.54,2.54-2.54,2.54,1.13,2.54,2.54Z"/>
        <rect class="st23" x="352.37" y="99.4" width="35.77" height="3.51"/>
        <rect class="st26" x="352.37" y="105.39" width="22.69" height="3.51"/>
        <rect class="st2" x="176.16" y=".4" width="55.18" height="23.67"/>
        <polyline class="st2" points="125.67 94.41 164.45 12.19 176.16 12.19"/>
        <path class="st19" d="M129.25,94.41c0,1.98-1.6,3.59-3.59,3.59s-3.59-1.6-3.59-3.59,1.6-3.59,3.59-3.59,3.59,1.6,3.59,3.59Z"/>
        <rect class="st28" x="179.97" y="4.44" width="45.1" height="3.51"/>
        <rect class="st33" x="179.97" y="16.43" width="38.76" height="3.51"/>
        <rect class="st32" x="179.97" y="10.44" width="28.79" height="3.51"/>
        <rect class="st30" x="127.81" y="321.1" width="103.45" height="42.93" rx="8.41" ry="8.41"/>
        <rect class="st29" x="135.06" y="342.65" width="6.36" height="13.59"/>
        <rect class="st39" x="135.06" y="342.65" width="6.36" height="13.59"/>
        <rect class="st31" x="144.23" y="332.09" width="6.36" height="24.15"/>
        <rect class="st40" x="144.23" y="332.09" width="6.36" height="24.15"/>
        <rect class="st34" x="153.41" y="336.84" width="6.36" height="19.4"/>
        <rect class="st38" x="153.41" y="336.84" width="6.36" height="19.4"/>
        <rect class="st18" x="162.59" y="344.1" width="6.36" height="12.14"/>
        <rect class="st41" x="162.59" y="344.1" width="6.36" height="12.14"/>
        <rect class="st12" x="171.77" y="338.82" width="6.36" height="17.43"/>
        <rect class="st42" x="171.77" y="338.82" width="6.36" height="17.43"/>
        <rect class="st16" x="180.95" y="334.2" width="6.36" height="22.05"/>
        <rect class="st44" x="180.95" y="334.2" width="6.36" height="22.05"/>
        <rect class="st15" x="190.13" y="337.36" width="6.36" height="18.88"/>
        <rect class="st45" x="190.13" y="337.36" width="6.36" height="18.88"/>
        <rect class="st14" x="199.3" y="341.9" width="6.36" height="14.34"/>
        <rect class="st43" x="199.3" y="341.9" width="6.36" height="14.34"/>
        <rect class="st13" x="208.48" y="347" width="6.36" height="9.24"/>
        <rect class="st47" x="208.48" y="347" width="6.36" height="9.24"/>
        <rect class="st17" x="217.66" y="339.35" width="6.36" height="16.89"/>
        <rect class="st46" x="217.66" y="339.35" width="6.36" height="16.89"/>
        <path class="st49" d="M228.33,244.03c-.27-3.01-5.74-27.87-8.2-35.8-2.46-7.93-4.09-13.12-1.91-15.31,2.19-2.19,12.3-4.64,18.87,1.91,6.56,6.57,12.3,35.8,14.76,38.26l-23.51,10.93h0Z"/>
      </g>
    </g>
  </g>
</svg>