<svg xmlns="http://www.w3.org/2000/svg" xmlns:xlink="http://www.w3.org/1999/xlink" version="1.1" x="0px" y="0px" viewBox="-1.6 -3.2 35.2 43.2" enable-background="new 0 0 32 32" xml:space="preserve"><g><path d="M16,2C8.28,2,2,8.28,2,16s6.28,14,14,14s14-6.28,14-14S23.72,2,16,2z M27.949,15H17V4.051   C22.819,4.534,27.466,9.181,27.949,15z M16,28C9.383,28,4,22.617,4,16C4,9.721,8.851,4.562,15,4.051V16c0,0.553,0.448,1,1,1h11.949   C27.438,23.15,22.279,28,16,28z"/></g><text x="0.0" y="37.6" font-size="1.6" font-weight="bold" font-family="Arbeit Regular, Helvetica, Arial-Unicode, Arial, Sans-serif" fill="#000000">Created by RAHMAT DWI CAHYO</text><text x="0.0" y="39.2" font-size="1.6" font-weight="bold" font-family="Arbeit Regular, Helvetica, Arial-Unicode, Arial, Sans-serif" fill="#000000">from Noun Project</text></svg>