<svg xmlns="http://www.w3.org/2000/svg" xmlns:xlink="http://www.w3.org/1999/xlink" version="1.1" x="0px" y="0px" viewBox="-1.6 -3.2 35.2 43.2" enable-background="new 0 0 32 32" xml:space="preserve"><g><path d="M29.866,12.77c-0.117-0.362-0.431-0.626-0.808-0.681l-8.404-1.223l-3.758-7.613c-0.336-0.684-1.457-0.684-1.793,0   l-3.758,7.613l-8.404,1.223c-0.377,0.055-0.69,0.318-0.808,0.681c-0.117,0.361-0.02,0.759,0.253,1.024l6.082,5.928l-1.437,8.369   c-0.064,0.375,0.09,0.754,0.397,0.978c0.308,0.225,0.719,0.254,1.053,0.076L16,25.194l7.518,3.95   c0.146,0.077,0.306,0.115,0.465,0.115c0.207,0,0.414-0.064,0.588-0.191c0.308-0.224,0.462-0.603,0.397-0.978l-1.437-8.369   l6.082-5.928C29.886,13.528,29.983,13.131,29.866,12.77z M21.759,18.656c-0.235,0.229-0.343,0.561-0.287,0.885l1.183,6.891   l-6.189-3.252c-0.146-0.077-0.305-0.115-0.465-0.115s-0.319,0.038-0.465,0.115l-6.189,3.252l1.183-6.891   c0.056-0.324-0.052-0.655-0.287-0.885l-5.007-4.88l6.919-1.007c0.326-0.047,0.607-0.252,0.753-0.547L16,5.955l3.094,6.268   c0.146,0.295,0.427,0.5,0.753,0.547l6.919,1.007L21.759,18.656z"/></g><text x="0.0" y="37.6" font-size="1.6" font-weight="bold" font-family="Arbeit Regular, Helvetica, Arial-Unicode, Arial, Sans-serif" fill="#000000">Created by RAHMAT DWI CAHYO</text><text x="0.0" y="39.2" font-size="1.6" font-weight="bold" font-family="Arbeit Regular, Helvetica, Arial-Unicode, Arial, Sans-serif" fill="#000000">from Noun Project</text></svg>