<svg xmlns="http://www.w3.org/2000/svg" xmlns:xlink="http://www.w3.org/1999/xlink" version="1.1" x="0px" y="0px" viewBox="-1.6 -3.2 35.2 43.2" enable-background="new 0 0 32 32" xml:space="preserve"><g><path d="M13,2H3C2.447,2,2,2.447,2,3v10c0,0.553,0.447,1,1,1h10c0.553,0,1-0.447,1-1V3C14,2.447,13.553,2,13,2z M12,12H4V4h8V12z    M29,2H19c-0.553,0-1,0.447-1,1v10c0,0.553,0.447,1,1,1h10c0.553,0,1-0.447,1-1V3C30,2.447,29.553,2,29,2z M28,12h-8V4h8V12z    M29,18H19c-0.553,0-1,0.447-1,1v10c0,0.553,0.447,1,1,1h10c0.553,0,1-0.447,1-1V19C30,18.447,29.553,18,29,18z M28,28h-8v-8h8V28z    M13,18H3c-0.553,0-1,0.447-1,1v10c0,0.553,0.447,1,1,1h10c0.553,0,1-0.447,1-1V19C14,18.447,13.553,18,13,18z M12,28H4v-8h8V28z"/></g><text x="0.0" y="37.6" font-size="1.6" font-weight="bold" font-family="Arbeit Regular, Helvetica, Arial-Unicode, Arial, Sans-serif" fill="#000000">Created by RAHMAT DWI CAHYO</text><text x="0.0" y="39.2" font-size="1.6" font-weight="bold" font-family="Arbeit Regular, Helvetica, Arial-Unicode, Arial, Sans-serif" fill="#000000">from Noun Project</text></svg>